<?xml version="1.0" standalone="no"?>
<!DOCTYPE svg PUBLIC "-//W3C//DTD SVG 20010904//EN"
 "http://www.w3.org/TR/2001/REC-SVG-20010904/DTD/svg10.dtd">
<svg version="1.0" xmlns="http://www.w3.org/2000/svg"
 width="900.000000pt" height="900.000000pt" viewBox="0 0 900.000000 900.000000"
 preserveAspectRatio="xMidYMid meet">
<metadata>
Created by potrace 1.13, written by Peter Selinger 2001-2015
</metadata>
<g transform="translate(0.000000,900.000000) scale(0.100000,-0.100000)"
fill="#000000" stroke="none">
<path d="M5375 7568 c-27 -5 -61 -9 -74 -9 -15 -1 -20 -4 -12 -9 17 -10 -90
-53 -112 -45 -9 4 -22 3 -28 -1 -9 -5 -7 -10 7 -15 15 -6 12 -8 -14 -8 -18 -1
-31 -5 -28 -10 3 -5 -1 -11 -9 -15 -8 -3 -15 -1 -15 4 0 5 -7 7 -15 4 -8 -4
-15 -13 -15 -22 0 -8 -3 -12 -7 -9 -3 4 -11 -3 -18 -16 -8 -15 -8 -24 -1 -29
6 -4 1 -8 -11 -8 -30 0 -38 -18 -11 -23 l23 -4 -22 -2 c-26 -1 -32 -21 -6 -21
9 0 14 -3 10 -6 -14 -14 -57 7 -57 27 0 11 -4 17 -10 14 -5 -3 -10 -14 -10
-24 0 -10 -8 -21 -19 -24 -14 -3 -17 0 -13 15 4 17 0 18 -37 13 -26 -3 -41 -1
-41 6 0 7 -9 9 -21 6 -17 -5 -18 -3 -7 10 12 14 11 15 -9 5 -27 -15 -55 -16
-33 -2 12 8 10 10 -10 11 -14 1 -38 1 -55 0 -16 0 -25 2 -18 6 6 5 -41 9 -104
10 -85 1 -118 5 -124 15 -7 10 -12 11 -28 1 -15 -10 -22 -9 -31 2 -15 18 -71
20 -88 3 -9 -9 -15 -9 -23 -1 -7 7 -37 9 -84 6 -48 -4 -74 -2 -79 6 -4 6 -28
10 -54 9 -37 -1 -40 -2 -14 -5 17 -2 32 -9 32 -14 0 -10 -49 -1 -64 12 -11 9
-38 0 -49 -17 -4 -7 -15 -10 -23 -7 -11 4 -12 8 -4 13 32 20 -140 -4 -191 -27
-46 -20 -70 -24 -122 -21 -46 2 -63 0 -60 -9 7 -18 -83 -29 -103 -12 -13 10
-17 10 -24 -1 -4 -7 -14 -10 -22 -7 -8 3 -30 2 -49 -3 -24 -5 -27 -8 -11 -9
12 -1 22 -5 22 -11 0 -13 -16 -13 -41 0 -13 7 -19 7 -19 0 0 -5 -10 -9 -22 -7
-13 1 -22 -3 -21 -10 4 -17 -57 -34 -108 -29 -24 2 -62 -3 -84 -10 -22 -8 -87
-30 -145 -49 -58 -19 -114 -39 -125 -44 -11 -6 -63 -24 -115 -41 -52 -17 -102
-34 -110 -37 -8 -3 -64 -23 -125 -43 -60 -21 -216 -75 -345 -120 -129 -45
-282 -97 -340 -117 -58 -19 -118 -41 -135 -48 -64 -28 -193 -63 -250 -68 -98
-9 -155 -40 -135 -75 17 -29 39 -192 26 -192 -6 -1 2 -8 18 -17 61 -32 200 -4
366 75 41 20 79 35 83 34 5 -1 6 1 3 6 -6 10 12 19 137 68 49 19 96 33 104 30
8 -3 12 -2 9 3 -5 8 34 27 174 80 47 18 99 39 115 46 17 8 176 62 355 121 179
58 334 110 345 114 11 4 58 20 105 35 47 15 92 33 100 40 17 13 228 75 257 75
11 0 23 4 29 9 5 5 32 11 59 13 28 2 52 6 55 10 9 12 172 37 344 53 187 18
253 19 327 5 30 -6 101 -12 159 -14 102 -3 320 -46 274 -54 -11 -1 -54 6 -94
17 -41 12 -76 18 -79 15 -3 -3 13 -22 34 -42 37 -34 39 -37 18 -40 -13 -2 -23
-10 -23 -18 0 -16 -8 -18 -65 -15 -30 2 -36 -1 -25 -8 13 -10 13 -11 0 -11
-13 0 -13 -1 0 -10 11 -7 3 -10 -28 -10 -39 0 -43 -2 -37 -20 4 -13 2 -20 -7
-20 -7 0 -25 -6 -40 -14 -15 -8 -36 -12 -47 -9 -11 3 -28 0 -38 -6 -10 -6 -13
-11 -5 -11 7 0 11 -4 7 -10 -3 -5 -12 -7 -20 -3 -9 3 -15 -1 -15 -11 0 -9 -8
-16 -17 -17 -43 -2 -103 -24 -103 -39 0 -5 -9 -10 -20 -10 -11 0 -19 -6 -17
-12 1 -8 -10 -14 -25 -16 -16 -2 -28 -7 -28 -11 0 -4 -23 -15 -51 -25 -28 -10
-53 -25 -56 -32 -3 -8 -18 -14 -34 -14 -16 0 -38 -9 -49 -20 -11 -11 -26 -20
-34 -20 -8 0 -17 -7 -20 -16 -3 -8 -10 -13 -15 -10 -5 4 -11 3 -13 -1 -1 -5
-18 -16 -36 -25 -28 -15 -34 -16 -38 -3 -4 8 -16 15 -27 15 -21 0 -21 0 1 -16
29 -20 28 -34 -4 -34 -19 0 -25 -4 -20 -15 4 -10 -1 -15 -14 -15 -11 0 -20 -5
-20 -11 0 -6 -7 -8 -15 -5 -38 15 -50 18 -36 8 10 -7 10 -11 1 -17 -7 -4 -16
-1 -21 6 -6 10 -9 8 -9 -10 0 -18 -4 -22 -20 -18 -18 5 -25 -4 -21 -27 1 -5
-7 -6 -19 -3 -13 3 -20 0 -20 -9 0 -7 -6 -11 -14 -8 -7 3 -20 -2 -29 -10 -9
-9 -27 -16 -41 -16 -19 0 -26 -5 -26 -20 0 -15 -7 -20 -25 -20 -14 0 -25 -4
-25 -10 0 -5 -9 -10 -20 -10 -11 0 -23 -7 -26 -15 -3 -8 -21 -17 -40 -21 -19
-3 -34 -10 -34 -15 0 -5 -10 -9 -22 -9 -18 0 -20 -2 -9 -9 12 -8 9 -11 -11
-16 -15 -4 -32 -4 -37 0 -6 3 -11 2 -11 -4 0 -5 6 -12 13 -15 6 -3 0 -5 -14
-3 -17 3 -30 -3 -38 -15 -6 -10 -18 -18 -25 -18 -8 0 -16 -5 -18 -10 -2 -6
-20 -12 -41 -13 -33 -3 -66 -27 -67 -49 0 -5 -13 -8 -29 -8 -16 0 -31 -6 -35
-15 -3 -9 -18 -15 -36 -15 -17 0 -29 -4 -25 -9 3 -5 -4 -12 -15 -16 -11 -3
-20 -11 -20 -16 0 -5 -11 -9 -25 -9 -14 0 -25 -4 -25 -10 0 -5 -6 -10 -14 -10
-8 0 -16 -5 -18 -11 -2 -6 -15 -12 -30 -12 -14 -1 -24 -5 -21 -9 2 -5 -3 -8
-11 -8 -9 0 -16 -4 -16 -10 0 -5 -9 -10 -19 -10 -11 0 -23 -5 -27 -11 -3 -6
-15 -9 -25 -6 -11 3 -17 1 -14 -3 3 -5 -12 -17 -32 -26 -21 -10 -41 -22 -44
-26 -3 -5 -16 -10 -27 -11 -12 -1 -22 -5 -22 -10 0 -5 -7 -7 -15 -3 -8 3 -15
1 -15 -5 0 -5 -18 -18 -40 -28 -22 -10 -37 -21 -33 -24 3 -4 -5 -7 -19 -7 -15
0 -28 -5 -30 -10 -2 -6 -13 -12 -26 -13 -13 -1 -21 -6 -18 -14 3 -6 -1 -10 -7
-7 -7 2 -22 -5 -34 -16 -12 -11 -28 -21 -35 -22 -7 -2 -19 -9 -26 -15 -7 -7
-22 -13 -33 -13 -11 0 -17 -4 -14 -10 3 -5 0 -7 -8 -4 -10 4 -19 -20 -36 -98
-12 -57 -27 -116 -32 -132 -11 -35 -11 -111 0 -83 8 22 30 -159 37 -304 6
-139 -14 -120 -22 21 -8 114 -22 186 -23 118 -1 -31 -5 -38 -21 -38 -11 0 -20
-5 -20 -11 0 -5 -12 -14 -28 -20 -15 -5 -33 -18 -40 -29 -11 -18 -10 -20 20
-21 27 0 29 -2 13 -8 -11 -5 -23 -7 -27 -4 -11 6 -129 -57 -123 -66 2 -5 -2
-11 -10 -15 -8 -3 -15 -16 -15 -30 0 -14 -5 -28 -12 -32 -7 -4 -8 -3 -4 4 10
16 -5 15 -26 -2 -12 -8 -18 -27 -18 -51 0 -32 -2 -36 -15 -25 -8 7 -15 18 -15
24 0 6 5 4 10 -4 8 -13 10 -12 10 3 0 14 -5 17 -22 11 -30 -9 -45 -12 -35 -7
14 8 7 22 -8 17 -8 -4 -15 -14 -16 -23 0 -9 -3 -11 -5 -4 -6 13 -40 5 -72 -18
-18 -13 -22 -26 -24 -78 -1 -35 -6 -61 -12 -61 -6 0 -5 -4 3 -9 10 -6 10 -10
1 -16 -6 -4 -14 -4 -17 -1 -3 3 -18 -1 -33 -9 -28 -14 -28 -16 -35 -142 -7
-109 -3 -170 23 -413 l31 -285 48 -43 c26 -24 47 -48 45 -53 -1 -6 2 -8 8 -4
5 3 10 3 10 -2 0 -4 16 -19 35 -32 19 -13 32 -27 29 -32 -3 -5 0 -8 8 -7 7 2
12 -3 11 -9 -2 -7 4 -13 12 -13 8 0 15 -7 15 -15 0 -8 5 -14 12 -12 7 1 13 -5
13 -13 0 -8 6 -14 13 -13 7 2 12 -4 12 -12 0 -8 6 -15 13 -15 8 0 20 -11 27
-25 7 -14 17 -25 21 -25 4 0 50 -42 103 -92 52 -51 120 -115 150 -143 40 -37
53 -55 50 -70 -4 -16 -3 -17 5 -5 9 13 16 9 47 -22 20 -22 32 -43 28 -50 -4
-6 -3 -9 2 -6 11 7 67 -24 65 -35 -3 -15 49 -49 65 -43 12 4 14 1 9 -14 -5
-14 -2 -20 9 -20 9 0 16 -8 16 -19 0 -11 9 -23 20 -26 11 -3 20 -10 20 -15 0
-4 9 -10 21 -13 12 -3 18 -10 14 -16 -3 -6 0 -11 8 -11 8 0 17 -7 21 -15 3 -8
13 -15 21 -15 9 0 13 -4 10 -10 -3 -5 -2 -10 2 -10 13 0 98 -82 96 -92 -2 -4
2 -8 9 -8 6 0 18 -7 27 -15 9 -8 29 -26 44 -39 16 -14 29 -28 30 -33 3 -17 31
-42 40 -36 6 4 8 -1 4 -11 -4 -9 -3 -15 2 -11 14 8 41 -6 41 -21 0 -8 10 -18
23 -23 12 -5 31 -18 41 -30 11 -11 25 -21 33 -21 7 0 13 -7 13 -15 0 -8 5 -15
11 -15 6 0 9 -7 5 -15 -4 -10 1 -15 15 -15 11 0 17 -4 14 -10 -3 -6 3 -10 14
-10 12 0 21 -6 21 -14 0 -8 20 -29 45 -47 25 -18 45 -36 45 -40 0 -11 49 -59
60 -59 6 0 10 -17 11 -37 1 -30 2 -33 7 -15 7 21 8 22 30 7 12 -9 19 -21 16
-27 -5 -7 -1 -9 9 -5 11 4 20 -1 27 -13 6 -11 7 -20 2 -20 -4 0 -8 -8 -8 -19
0 -12 5 -17 15 -13 9 3 12 1 7 -6 -4 -7 -1 -12 8 -12 8 0 16 6 19 13 3 9 7 9
20 -2 9 -7 14 -17 11 -22 -3 -5 3 -6 13 -2 17 6 17 5 2 -13 -20 -24 -21 -54
-1 -47 11 5 11 7 0 14 -11 8 -11 10 1 18 22 14 53 1 97 -41 39 -38 47 -40 140
-53 289 -40 447 -50 849 -50 335 0 427 3 565 20 91 10 184 19 208 20 23 0 42
3 42 6 0 6 63 17 135 24 11 2 27 5 35 7 34 12 276 71 292 71 9 1 15 3 13 6 -3
2 32 24 78 49 45 24 160 87 254 139 98 53 178 91 184 87 7 -4 9 -3 6 3 -9 14
67 54 89 47 13 -4 15 -3 7 3 -9 6 27 31 115 78 70 38 139 77 154 87 16 11 33
16 39 12 8 -5 9 -3 4 5 -5 9 -1 12 12 9 10 -1 29 8 41 20 16 16 30 21 45 17
14 -4 18 -3 9 3 -16 11 26 32 63 32 19 0 25 5 25 21 0 16 4 19 20 14 22 -7 53
11 44 26 -3 5 0 9 6 9 7 0 25 9 41 21 16 11 33 18 38 15 5 -3 23 2 41 10 24
12 29 19 19 25 -12 7 -11 9 1 10 8 1 18 1 23 0 4 0 7 3 7 8 0 5 9 7 19 4 29
-7 78 28 185 132 116 114 274 324 260 347 -4 6 -3 8 3 5 13 -8 76 109 67 125
-4 7 -3 8 4 4 12 -7 16 5 13 33 -2 7 2 10 8 7 13 -8 65 128 96 251 26 106 50
313 37 322 -13 9 -22 51 -11 51 5 0 9 -9 9 -20 0 -11 5 -20 10 -20 10 0 13 41
12 183 0 42 4 77 9 77 5 0 8 24 7 53 l-1 52 -6 -45 -6 -45 -8 34 c-10 48 -8
183 3 201 7 11 10 6 11 -20 0 -19 4 -44 9 -55 6 -13 7 13 4 70 -4 50 -6 195
-6 323 0 244 12 333 23 182 5 -71 6 -64 4 42 -1 70 2 125 6 122 5 -3 9 46 10
108 0 62 1 179 2 261 1 81 -1 147 -5 147 -4 0 -55 39 -115 88 -59 48 -125 100
-146 115 -21 16 -34 33 -31 39 4 6 2 8 -3 5 -11 -7 -123 79 -123 93 0 4 -9 10
-21 13 -13 4 -18 10 -13 18 4 7 3 10 -3 6 -6 -4 -37 15 -69 41 -117 94 -189
155 -192 163 -2 5 -8 9 -14 9 -6 0 -18 8 -27 18 -9 10 -32 29 -51 42 -19 13
-37 27 -40 30 -3 3 -27 23 -54 45 -27 21 -61 50 -75 63 -14 14 -36 31 -48 39
-13 8 -20 19 -17 24 3 5 -1 9 -9 9 -12 0 -89 53 -123 86 -7 6 -49 39 -95 75
-46 35 -99 79 -117 97 -19 17 -37 32 -41 32 -3 0 -24 17 -47 38 -23 20 -53 43
-68 51 -14 8 -26 20 -26 28 0 7 -4 12 -8 10 -10 -3 -232 172 -232 184 0 5 -5
9 -11 9 -5 0 -56 37 -111 83 -196 161 -190 157 -293 157 -62 0 -85 3 -75 10
17 11 15 11 -55 -2z m172 -169 c32 -12 143 -94 249 -184 78 -66 88 -74 154
-125 25 -19 72 -57 106 -85 34 -27 81 -66 105 -85 23 -19 88 -72 143 -118 56
-46 119 -98 140 -115 22 -18 69 -57 105 -88 36 -30 106 -86 156 -125 49 -38
99 -76 110 -86 53 -44 173 -139 290 -230 209 -164 255 -204 255 -225 0 -18 34
-46 62 -50 28 -4 68 -29 90 -56 22 -28 8 -54 -38 -73 -52 -22 -98 -9 -148 41
-24 23 -142 122 -262 219 -315 253 -399 320 -588 474 -93 75 -183 145 -200
155 -26 14 -181 142 -299 247 -16 14 -62 50 -102 80 -69 53 -319 255 -359 292
-11 10 -35 28 -53 41 -45 30 -42 65 7 89 42 21 42 21 77 7z m-974 -497 c27 -5
58 -19 73 -33 22 -20 24 -30 22 -78 -3 -53 -4 -55 -48 -78 -26 -15 -82 -30
-135 -38 -80 -12 -96 -12 -146 3 -53 15 -57 19 -72 63 -20 55 -21 70 -6 102
15 33 45 49 119 64 65 12 102 11 193 -5z m1245 -159 c49 -31 117 -91 130 -115
7 -12 30 -31 50 -40 31 -15 124 -84 197 -146 33 -28 162 -132 251 -202 46 -36
177 -141 291 -235 114 -93 258 -210 319 -260 62 -49 176 -142 254 -205 l142
-114 -22 -18 c-35 -28 -73 -22 -127 19 -112 86 -180 140 -208 166 -16 15 -75
62 -130 104 -55 43 -140 111 -189 152 -48 41 -117 97 -151 125 -381 307 -556
449 -585 476 -19 17 -78 66 -130 108 -206 166 -212 172 -199 188 16 19 74 17
107 -3z m-340 -48 c7 -14 19 -28 27 -31 8 -4 15 -12 15 -20 0 -8 5 -14 11 -14
6 0 9 -9 6 -20 -3 -11 -1 -23 4 -26 5 -3 9 -14 9 -25 0 -10 4 -19 8 -19 5 0
14 -11 20 -25 6 -14 18 -25 27 -25 8 0 15 -6 15 -14 0 -7 8 -24 19 -37 19 -25
61 -96 61 -104 0 -12 -18 -2 -54 31 -21 19 -49 42 -62 51 -13 8 -21 19 -18 24
3 5 1 8 -4 7 -16 -5 -123 92 -116 104 5 7 2 8 -5 3 -8 -4 -24 4 -42 21 -34 33
-36 41 -9 49 11 3 20 13 20 21 0 14 10 18 43 15 21 -3 22 12 2 29 -19 15 -19
30 -2 30 8 0 19 -11 25 -25z m-1508 -14 c0 -12 81 -21 100 -11 9 5 20 6 26 2
11 -8 74 -128 74 -142 0 -27 -109 -108 -129 -95 -5 3 -11 1 -13 -4 -3 -9 -70
-15 -135 -12 -17 0 -38 8 -47 16 -8 8 -28 15 -45 15 -43 0 -61 23 -61 79 0 33
5 53 18 63 19 17 109 59 120 56 15 -4 50 14 56 27 6 16 36 21 36 6z m1250
-235 c224 -183 280 -232 285 -246 3 -9 17 -22 32 -29 20 -9 23 -15 14 -20 -10
-6 -10 -10 -1 -16 6 -4 14 -4 17 -1 6 6 90 -60 130 -101 12 -13 25 -23 28 -23
6 0 154 -118 198 -158 15 -14 27 -33 27 -42 0 -9 9 -34 19 -56 19 -39 19 -54
-1 -54 -6 0 -8 3 -5 7 7 6 -37 33 -55 33 -24 0 -243 194 -235 208 3 4 -5 9
-19 10 -21 2 -104 64 -184 138 -50 47 -111 93 -130 99 -11 4 -20 13 -20 21 0
8 -4 13 -8 10 -5 -3 -19 8 -32 25 -14 16 -28 29 -32 29 -8 0 -13 3 -98 80 -30
28 -58 50 -62 50 -4 0 -12 9 -18 19 -9 18 -5 21 32 29 48 11 95 6 118 -12z
m-1668 -86 c32 0 68 -23 88 -57 26 -45 25 -64 -5 -99 -14 -16 -25 -25 -25 -21
0 5 -15 -2 -32 -15 -29 -20 -44 -23 -133 -23 -77 0 -99 3 -97 13 2 10 -2 11
-15 4 -26 -15 -87 20 -106 61 -24 51 -8 100 46 135 35 22 53 27 109 27 36 0
69 3 73 7 4 4 24 -2 43 -13 20 -10 44 -19 54 -19z m-491 -238 c37 -19 60 -39
71 -62 22 -43 24 -100 4 -100 -8 0 -16 -7 -18 -16 -2 -9 -28 -26 -58 -40 -107
-46 -309 -22 -360 43 -37 48 -17 130 37 151 161 60 243 66 324 24z m3089 -45
c47 -40 139 -116 205 -169 66 -52 131 -106 145 -118 14 -12 41 -34 60 -49 19
-14 37 -28 40 -31 3 -3 43 -36 90 -73 112 -90 137 -111 185 -153 22 -19 72
-60 112 -92 39 -31 131 -106 204 -166 121 -100 130 -110 114 -123 -36 -25 -91
-13 -137 31 -15 14 -30 26 -33 26 -4 0 -23 16 -43 35 -20 20 -48 38 -62 42
-14 3 -50 27 -80 52 -30 26 -99 82 -152 125 -89 71 -103 86 -99 108 0 4 -6 5
-14 1 -18 -6 -55 23 -55 44 0 7 -3 13 -7 13 -5 0 -22 14 -40 30 -18 17 -37 30
-42 30 -6 0 -11 4 -11 10 0 5 -43 42 -95 81 -52 39 -95 75 -95 80 0 4 -8 10
-17 14 -10 3 -40 26 -67 50 -27 25 -65 55 -83 67 -19 14 -46 48 -64 83 -42 81
-59 125 -51 125 4 0 46 -33 92 -73z m-1223 -154 c45 -46 76 -83 70 -83 -6 0
-1 -9 11 -20 12 -11 29 -20 39 -20 14 0 15 -2 4 -9 -17 -11 1 -23 22 -15 9 3
33 -12 63 -40 26 -25 49 -46 52 -46 2 0 15 -9 29 -20 14 -11 22 -20 18 -20
-13 0 56 -60 88 -76 15 -8 36 -23 46 -32 35 -34 109 -98 151 -132 25 -19 55
-45 68 -57 12 -13 27 -23 32 -23 5 0 18 -12 29 -26 12 -15 21 -24 21 -20 0 4
12 -5 28 -19 15 -15 52 -45 82 -68 61 -46 71 -57 64 -69 -3 -4 1 -5 8 -3 8 3
24 -6 36 -20 12 -14 27 -25 33 -25 5 0 7 -4 4 -10 -3 -5 1 -10 9 -10 9 0 21
-9 28 -20 7 -11 18 -20 25 -20 7 0 13 -8 13 -17 0 -9 3 -14 6 -10 9 9 95 -63
88 -74 -3 -5 1 -6 9 -3 29 11 36 -18 26 -101 -16 -134 -75 -335 -98 -335 -3 0
-7 -12 -8 -27 0 -14 -8 -30 -17 -35 -9 -5 -16 -15 -16 -23 0 -17 -37 -86 -53
-100 -7 -6 -13 -15 -14 -22 -2 -7 -18 -28 -38 -47 -19 -20 -35 -42 -35 -51 0
-8 -4 -14 -8 -13 -10 3 -61 -43 -145 -130 -12 -12 -41 -32 -64 -43 -23 -11
-43 -24 -45 -28 -2 -4 -26 -19 -55 -33 -29 -14 -50 -28 -47 -31 3 -3 -12 -13
-33 -23 -21 -10 -40 -20 -43 -23 -3 -4 -16 -11 -30 -18 -76 -34 -121 -53 -129
-53 -5 0 -31 -9 -57 -20 -25 -11 -58 -21 -73 -22 -14 -1 -31 -6 -38 -10 -6 -5
-17 -8 -25 -7 -7 1 -20 0 -28 -3 -15 -6 -168 -34 -230 -42 -19 -3 -72 -10
-118 -16 -61 -8 -87 -8 -97 0 -9 8 -14 8 -17 0 -4 -13 -127 -24 -260 -24 -54
0 -98 -3 -98 -6 0 -3 -11 -7 -26 -8 -17 -1 -23 2 -19 11 4 6 0 4 -8 -5 -11
-14 -29 -18 -74 -18 -33 0 -84 -4 -114 -9 -30 -5 -94 -15 -144 -21 -113 -16
-197 -33 -255 -54 -25 -9 -52 -16 -62 -16 -9 0 -18 -4 -20 -9 -1 -5 -16 -11
-33 -14 -90 -15 -185 -79 -255 -170 -8 -10 -28 -32 -44 -49 -20 -19 -30 -39
-31 -61 0 -18 -4 -38 -9 -45 -4 -7 -5 -16 -2 -19 3 -4 6 0 6 8 1 10 4 8 11 -4
6 -10 8 -21 5 -24 -9 -10 -50 6 -76 29 -14 13 -55 49 -92 82 -37 32 -65 62
-62 67 3 5 -1 7 -8 4 -7 -3 -34 17 -60 44 -26 27 -48 47 -50 45 -2 -2 -43 35
-91 81 -49 47 -90 85 -92 85 -2 0 -29 25 -60 55 -31 30 -68 63 -81 74 -14 11
-26 23 -27 28 0 4 -20 21 -44 36 -24 16 -43 33 -43 38 0 5 -4 9 -8 9 -5 0 -34
24 -64 53 -31 28 -82 75 -114 102 -62 54 -264 254 -264 261 0 3 7 1 17 -4 21
-12 65 0 112 31 126 82 149 96 171 108 14 7 28 12 33 11 4 -1 7 2 7 7 0 5 8
12 18 15 9 3 31 18 47 33 l30 28 -3 120 c-1 66 1 115 5 109 5 -6 28 -23 54
-37 42 -25 47 -25 67 -11 17 11 22 25 22 57 1 58 18 27 31 -54 12 -75 34 -108
72 -109 27 0 57 19 57 36 0 4 -7 16 -17 26 -15 17 -15 18 5 18 12 0 22 4 22 9
0 5 8 11 18 14 22 7 71 37 95 58 18 17 167 92 244 125 23 9 40 21 37 26 -3 4
1 8 8 8 18 0 68 23 68 32 0 3 14 9 31 13 17 4 40 16 50 26 10 10 28 19 38 19
10 0 43 18 72 40 30 22 58 39 63 37 5 -2 18 5 28 15 10 10 29 18 43 18 15 0
36 11 49 25 13 14 28 25 34 25 23 0 152 61 152 72 0 5 9 8 19 8 11 0 23 5 26
10 4 6 28 20 53 32 26 12 49 25 52 29 9 13 80 59 90 59 6 0 10 5 10 11 0 5 5
7 10 4 6 -3 13 1 16 10 10 25 24 -2 24 -48 0 -25 9 -50 30 -79 17 -22 30 -54
30 -69 0 -22 6 -30 25 -35 13 -3 29 -12 36 -20 8 -10 15 -11 25 -4 9 8 23 4
53 -15 40 -25 42 -25 66 -8 13 10 25 24 25 31 0 7 7 15 15 18 8 4 15 11 15 17
0 6 41 49 90 97 50 48 90 93 90 100 0 7 21 33 46 57 33 31 41 43 28 43 -16 0
-16 1 2 15 10 8 35 15 55 15 36 0 126 26 133 38 2 4 -3 32 -11 62 -21 78 -21
84 -9 92 7 5 11 49 10 123 0 63 1 115 3 115 2 0 9 -13 14 -30 13 -35 18 -36
67 -10 68 36 67 33 41 81 -13 24 -27 46 -30 49 -4 3 -10 21 -14 40 -7 33 -7
34 11 20 11 -8 56 -52 101 -97z m-429 56 c54 -13 70 -24 48 -32 -8 -3 -18 -2
-21 3 -10 15 -116 11 -160 -6 -22 -9 -47 -16 -56 -17 -13 -1 -9 -9 14 -34 17
-17 34 -30 38 -28 4 3 12 -2 19 -10 7 -8 16 -12 21 -9 5 3 9 -6 9 -20 0 -14
-4 -27 -9 -30 -5 -3 -7 -15 -4 -26 3 -11 1 -20 -5 -20 -6 0 -8 -10 -5 -22 3
-13 2 -20 -2 -16 -4 4 -17 -9 -27 -30 -11 -20 -26 -42 -33 -48 -15 -11 -15
-45 0 -57 6 -4 1 -14 -14 -26 -13 -10 -21 -23 -17 -29 3 -6 2 -13 -4 -17 -16
-10 -59 -103 -87 -188 l-26 -79 20 -41 c16 -33 18 -47 10 -65 -24 -52 -127 17
-127 85 0 22 -7 37 -20 45 -25 16 -26 28 -2 29 11 1 8 4 -8 8 -14 4 -26 12
-26 19 -1 7 -2 17 -3 23 0 6 -8 8 -17 5 -13 -5 -14 4 -9 72 13 153 93 326 209
449 22 23 43 40 47 37 4 -2 11 2 16 9 12 20 84 59 123 67 52 11 57 11 108 -1z
m-1932 -164 c52 -31 73 -79 52 -122 -21 -44 -99 -77 -193 -81 -130 -6 -213 28
-203 83 3 14 1 25 -4 25 -24 0 67 63 116 80 31 10 64 23 73 29 34 20 113 13
159 -14z m3817 -341 c23 -22 70 -62 105 -89 80 -64 140 -111 174 -138 15 -12
49 -40 77 -62 46 -35 51 -44 52 -80 1 -36 2 -37 8 -11 3 17 9 30 12 30 3 1 27
-18 55 -41 27 -23 102 -85 167 -138 64 -53 117 -100 117 -104 0 -13 -49 -31
-83 -31 -25 0 -53 17 -120 71 -127 102 -160 136 -153 154 6 17 -5 20 -20 5 -6
-6 -35 15 -79 55 -39 36 -74 65 -80 65 -5 0 -25 13 -43 29 -18 16 -52 44 -77
62 -25 19 -48 44 -51 57 -4 12 -23 31 -43 42 -59 31 -101 75 -101 108 0 16 -3
32 -7 35 -3 4 -7 18 -9 31 l-3 25 30 -18 c16 -10 48 -36 72 -57z m-4493 -574
c7 -16 33 -46 59 -67 25 -20 53 -44 61 -53 8 -8 27 -21 41 -29 25 -12 43 -28
87 -77 20 -22 20 -22 -9 -43 -17 -12 -28 -30 -27 -39 2 -11 -4 -17 -16 -17
-11 0 -21 -6 -24 -13 -2 -6 -8 -12 -13 -12 -6 0 -8 4 -5 9 3 5 -10 26 -29 47
-19 21 -35 41 -35 45 0 4 -8 10 -18 13 -10 3 -23 20 -29 37 -9 22 -17 30 -28
26 -8 -4 -15 -2 -15 3 0 5 -9 11 -19 15 -19 6 -31 49 -31 106 0 16 -7 29 -16
33 -13 5 -15 1 -12 -17 4 -23 -14 -51 -26 -39 -4 3 -4 -25 -1 -62 6 -63 5 -67
-12 -58 -10 6 -31 24 -47 40 -27 29 -27 32 -15 61 8 17 20 32 29 34 9 2 4 7
-12 11 -16 5 -28 14 -28 21 0 24 12 45 25 45 8 0 11 8 8 20 -4 15 2 22 23 30
16 5 37 15 46 20 24 13 28 13 28 -5 0 -8 5 -15 11 -15 6 0 9 7 5 15 -3 8 -2
23 1 33 5 12 11 1 19 -36 7 -29 18 -66 24 -82z m4664 -382 c5 -28 17 -48 48
-76 23 -20 53 -47 66 -59 14 -13 30 -23 37 -23 16 0 93 -69 78 -70 -7 0 -13
-5 -13 -11 0 -7 9 -9 22 -6 16 5 34 -6 72 -40 28 -25 70 -58 93 -73 23 -15 40
-30 36 -34 -3 -3 -1 -6 5 -6 8 0 12 -20 12 -57 0 -40 6 -68 19 -90 18 -29 19
-40 9 -139 -5 -60 -10 -109 -11 -110 -1 0 -47 -26 -102 -56 -55 -31 -127 -69
-160 -83 -33 -15 -83 -38 -112 -52 -29 -14 -57 -22 -62 -18 -6 3 -11 -1 -11
-9 0 -19 -16 -21 -24 -3 -4 6 -4 2 -2 -10 3 -15 -1 -23 -10 -23 -16 0 -51 -18
-72 -37 -7 -7 -19 -13 -26 -13 -8 0 -19 -6 -26 -14 -6 -8 -18 -12 -26 -9 -8 3
-14 0 -14 -6 0 -6 -7 -11 -16 -11 -8 0 -22 -7 -31 -16 -9 -8 -21 -13 -28 -10
-7 2 -21 -4 -31 -15 -13 -15 -20 -16 -31 -7 -11 9 -13 8 -11 -3 2 -10 -5 -13
-24 -12 -17 1 -27 -3 -25 -10 1 -7 -3 -11 -9 -10 -6 1 -31 -16 -55 -38 -24
-22 -65 -52 -91 -65 -27 -13 -82 -44 -124 -69 -42 -25 -82 -45 -89 -45 -7 0
-15 -4 -17 -8 -1 -5 -71 -43 -154 -86 -144 -73 -156 -78 -305 -106 -85 -17
-203 -37 -264 -45 -60 -8 -130 -19 -155 -24 -129 -27 -291 -36 -640 -35 -364
1 -562 13 -650 39 -25 7 -85 16 -134 19 -79 6 -93 10 -127 37 -22 17 -39 37
-39 45 0 9 -4 12 -10 9 -5 -3 -10 -3 -10 2 0 4 -25 26 -55 47 -55 39 -67 56
-41 56 7 0 19 7 26 15 8 9 8 15 2 15 -6 0 -14 10 -17 21 -6 17 4 32 49 75 56
53 95 71 82 38 -7 -19 24 -93 40 -94 35 -1 45 55 14 88 -42 45 -23 58 145 101
61 16 117 29 125 28 8 0 40 6 70 13 73 17 104 21 315 40 72 6 189 17 260 25
72 8 173 17 225 20 122 7 235 21 384 47 65 11 123 21 130 22 6 1 16 4 21 7 6
4 35 12 65 19 136 30 352 119 475 196 22 13 47 27 55 31 26 11 213 166 245
203 16 19 39 44 50 55 39 38 95 112 95 125 0 7 3 10 6 7 4 -4 16 10 26 31 11
20 28 46 37 57 9 11 23 34 31 50 8 17 19 37 25 45 6 8 26 53 44 100 17 47 37
96 44 109 l12 25 3 -30 c2 -16 8 -35 14 -41 14 -18 45 -16 52 2 3 8 10 15 16
15 14 0 13 -27 -2 -33 -10 -4 -10 -6 0 -6 7 -1 18 11 24 27 16 37 18 38 27 23
11 -17 24 80 15 115 -6 25 -5 24 49 -17 45 -35 56 -50 61 -81z m-1917 -984 c4
-11 -86 -29 -182 -38 -176 -17 -336 -27 -373 -24 -39 3 -42 5 -30 20 9 12 46
21 128 32 172 24 450 30 457 10z"/>
<path d="M2220 1471 c0 -5 -9 -7 -20 -4 -11 3 -36 2 -57 -2 -27 -5 -33 -9 -22
-16 8 -5 9 -9 2 -9 -6 0 -20 -3 -30 -6 -15 -5 -15 -4 -3 5 9 6 10 11 3 11 -23
0 -43 -12 -36 -24 4 -8 3 -8 -7 1 -9 8 -20 6 -46 -9 -19 -11 -31 -25 -27 -31
3 -6 1 -7 -6 -3 -6 4 -24 0 -39 -10 -15 -10 -31 -19 -37 -19 -5 0 -10 -5 -10
-10 0 -6 -10 -21 -22 -35 -25 -26 -31 -46 -10 -34 7 4 9 3 4 -2 -5 -5 -14 -9
-19 -9 -6 0 -13 -6 -16 -14 -3 -9 0 -11 9 -6 8 5 11 4 6 -1 -5 -5 -14 -9 -20
-9 -7 0 -12 -10 -11 -22 0 -12 -3 -20 -8 -17 -9 6 -21 -21 -32 -71 -5 -22 -4
-26 4 -15 5 8 10 10 10 4 0 -6 -6 -17 -14 -24 -11 -8 -14 -26 -11 -63 3 -41 2
-44 -3 -17 -5 23 -8 -8 -9 -87 0 -68 3 -123 7 -123 5 0 6 -10 3 -22 -4 -19 -3
-20 6 -8 9 13 11 13 11 -2 0 -9 3 -25 6 -35 5 -15 4 -16 -6 -3 -9 12 -10 9 -5
-15 9 -43 68 -150 82 -150 6 0 15 -4 20 -9 5 -5 3 -6 -4 -2 -22 12 -14 -3 20
-40 17 -20 32 -40 32 -44 0 -5 4 -12 9 -17 5 -5 6 -3 2 5 -4 6 -2 12 4 12 6 0
8 6 4 13 -4 7 -3 9 2 4 5 -5 9 -14 9 -20 0 -5 6 -12 14 -15 9 -3 11 0 6 8 -5
9 -4 11 4 6 6 -4 9 -11 6 -16 -8 -13 60 -45 131 -64 39 -10 89 -14 140 -12 61
3 68 2 29 -4 l-50 -7 63 -1 c41 -1 61 2 57 8 -4 7 7 8 33 4 23 -4 63 0 101 10
71 18 92 20 88 7 -1 -5 1 -9 6 -10 22 -3 27 0 21 12 -4 7 -3 9 2 4 5 -5 9 -14
9 -19 0 -6 6 -13 14 -16 9 -3 11 0 6 9 -5 8 -4 11 1 6 9 -9 10 -13 13 -44 1
-15 3 -16 10 -3 6 8 7 18 4 24 -3 5 -1 6 6 2 6 -4 9 -12 6 -17 -3 -5 8 -17 24
-27 17 -10 29 -21 26 -24 -3 -2 1 -5 7 -5 7 0 23 -3 35 -7 26 -8 68 27 59 50
-3 8 -2 13 3 10 11 -7 35 39 27 53 -4 6 1 9 11 7 13 -3 18 3 20 23 1 14 -4 32
-10 40 -9 12 -9 13 1 7 7 -4 12 -1 12 9 0 12 -4 14 -19 5 -17 -9 -19 -7 -16 9
3 17 0 19 -21 11 -16 -7 -23 -6 -21 2 1 6 -4 13 -12 16 -9 3 -11 0 -6 -9 5 -8
4 -11 -1 -6 -5 5 -9 14 -9 20 0 5 -6 12 -14 15 -9 3 -11 0 -6 -8 5 -8 4 -11
-3 -6 -12 7 -9 18 30 91 41 80 59 152 65 270 4 80 1 130 -11 183 -17 80 -61
186 -74 178 -7 -4 -11 11 -13 57 0 9 -8 17 -18 17 -10 0 -28 11 -41 25 -27 28
-49 34 -29 8 11 -16 11 -16 -1 -5 -8 7 -15 18 -15 24 0 6 -6 13 -14 16 -9 3
-11 0 -6 -8 5 -9 4 -11 -4 -6 -6 4 -9 11 -6 16 7 11 -11 23 -72 48 -30 12 -55
17 -58 11 -4 -5 -14 -9 -23 -8 -14 0 -13 2 3 8 15 6 4 11 -46 20 -78 13 -199
15 -199 2z m160 -285 c20 -6 22 -5 10 4 -13 10 -13 11 0 7 8 -2 14 -11 12 -19
-1 -9 7 -18 18 -21 18 -5 19 -3 8 11 -9 12 -6 11 10 -2 17 -15 19 -22 10 -28
-7 -4 -8 -8 -3 -8 6 0 4 -4 -4 -9 -11 -7 -9 -10 8 -16 11 -3 21 -12 21 -18 0
-7 4 -6 10 3 6 9 10 10 10 3 0 -6 3 -20 6 -30 5 -15 4 -16 -6 -3 -10 12 -11
11 -6 -10 3 -14 6 -42 6 -63 0 -21 4 -36 8 -33 4 2 9 -13 9 -35 1 -23 -2 -37
-8 -34 -5 4 -9 -10 -9 -32 0 -48 -18 -113 -31 -113 -6 0 -7 -6 -3 -12 4 -8 3
-10 -2 -5 -5 5 -9 14 -9 20 0 7 -9 12 -20 12 -11 0 -21 7 -23 16 -5 25 -59 52
-90 44 -25 -6 -26 -5 -8 8 18 13 18 14 -3 12 -12 -1 -27 -7 -34 -15 -9 -10 -9
-11 0 -6 9 5 11 2 7 -8 -3 -9 -10 -14 -14 -11 -4 3 -13 -9 -20 -25 -7 -17 -15
-30 -19 -30 -4 0 -7 -9 -8 -20 -1 -11 2 -18 6 -16 4 3 13 1 21 -5 13 -7 13 -9
0 -9 -8 -1 3 -11 25 -23 l40 -21 -35 -7 c-31 -6 -29 -7 18 -8 38 -1 51 2 46
11 -4 7 -3 8 4 4 26 -16 9 -26 -40 -25 -50 0 -113 16 -78 19 8 0 -1 9 -21 20
-19 10 -41 26 -48 34 -7 9 -17 14 -21 11 -5 -3 -12 0 -16 6 -5 8 -3 9 6 4 10
-6 11 -4 5 11 -4 10 -13 41 -19 67 -6 26 -14 46 -17 43 -7 -7 1 131 11 193 6
29 7 58 3 65 -3 6 -3 8 2 4 14 -13 37 13 25 27 -8 10 -8 15 1 21 8 4 9 3 5 -4
-4 -7 -3 -12 1 -12 5 0 14 9 21 21 11 17 11 20 0 13 -10 -6 -9 -3 1 10 10 12
16 13 21 6 9 -15 21 -15 30 1 8 13 131 29 140 18 3 -3 16 -9 30 -13z"/>
<path d="M5200 1473 c0 -10 -34 -14 -132 -15 l-133 -2 150 -6 150 -6 -150 -2
-150 -2 2 -102 2 -103 143 -2 c155 -3 181 3 161 37 -16 24 -16 33 -2 25 6 -4
10 -1 8 6 -1 8 -1 42 0 77 1 52 4 62 19 63 9 0 1 5 -18 11 -19 5 -38 15 -42
21 -6 9 -8 9 -8 0z"/>
<path d="M3950 936 c0 -277 -3 -512 -6 -521 -6 -14 9 -16 150 -14 146 1 156 2
156 20 0 25 21 24 43 -1 9 -11 22 -20 28 -20 8 0 7 6 -2 17 -13 15 -12 15 8 3
12 -8 20 -17 17 -21 -5 -9 65 -33 73 -25 4 3 -2 6 -12 6 -10 0 -16 2 -13 5 3
4 18 3 33 -1 20 -5 23 -9 13 -15 -8 -6 15 -8 58 -7 40 2 70 6 68 9 -2 4 8 10
21 13 16 4 23 11 19 18 -4 6 -3 8 4 4 15 -9 64 15 58 30 -5 14 37 57 47 48 3
-3 15 9 26 27 23 37 27 54 11 44 -6 -3 -7 1 -4 9 3 9 9 14 13 12 4 -3 13 5 20
16 11 18 11 20 -1 15 -11 -4 -14 1 -10 21 5 24 6 24 12 7 13 -36 33 121 26
199 -8 86 -33 169 -48 160 -7 -4 -8 -2 -4 4 10 16 -18 65 -56 101 -33 31 -55
41 -42 19 4 -7 3 -8 -5 -4 -6 4 -9 11 -6 16 8 13 -53 42 -74 35 -22 -7 -53 4
-45 16 3 5 -15 9 -40 9 -24 0 -53 3 -63 6 -13 5 -15 4 -8 -4 6 -6 28 -13 50
-15 22 -2 11 -3 -24 -2 -64 3 -137 -17 -126 -35 3 -5 0 -12 -6 -16 -8 -5 -9
-3 -4 6 5 8 3 11 -6 8 -8 -3 -14 -9 -14 -14 0 -17 -16 -34 -26 -29 -5 4 -9 82
-9 176 l0 169 -150 0 -150 0 0 -504z m479 -11 c17 -6 22 -5 17 3 -12 20 0 13
20 -10 19 -22 19 -22 0 -8 -11 8 -17 11 -15 5 3 -5 11 -23 18 -40 7 -16 17
-38 22 -47 11 -22 12 -68 1 -68 -5 0 -9 -17 -10 -37 0 -30 2 -34 8 -18 5 13 9
14 9 5 0 -19 -17 -59 -18 -42 -1 7 -15 -1 -31 -18 -17 -17 -28 -35 -25 -40 3
-4 -3 -7 -12 -5 -60 12 -93 13 -87 3 4 -7 2 -8 -5 -4 -6 4 -9 11 -6 16 3 5 1
11 -5 15 -6 4 -7 11 -4 17 5 7 0 9 -15 5 -19 -5 -20 -3 -9 11 11 13 11 15 -2
10 -13 -5 -15 10 -15 92 0 54 3 96 7 94 4 -3 14 9 23 26 8 16 13 30 10 30 -4
0 -4 3 -1 8 6 9 93 7 125 -3z"/>
<path d="M5870 1181 c-46 -10 -82 -30 -75 -41 3 -6 0 -7 -8 -4 -8 3 -31 -9
-50 -26 l-36 -31 -4 43 c-3 38 -4 36 -5 -15 -2 -42 1 -56 10 -51 7 4 8 3 4 -4
-16 -26 -26 -9 -26 43 l0 55 -127 2 -128 2 130 6 130 6 -140 0 -140 -1 0 -390
0 -390 5 390 5 390 3 -382 2 -383 140 0 140 0 2 208 2 207 6 -210 5 -210 5
228 c5 212 6 230 24 243 19 13 10 20 -19 14 -5 -1 -6 2 -2 7 5 4 12 7 15 6 4
-1 15 5 24 14 24 21 125 24 141 3 11 -13 10 -13 -5 -1 -22 16 -22 12 -4 -24
12 -22 15 -24 18 -9 1 10 2 -93 0 -229 l-4 -247 151 0 151 0 2 273 3 272 5
-270 6 -270 0 300 c1 202 -3 303 -10 311 -7 7 -13 8 -17 2 -3 -5 -9 0 -12 11
-3 12 -1 19 3 16 5 -3 8 4 7 15 -1 11 -5 20 -10 20 -5 0 -16 8 -25 18 -10 10
-12 11 -7 2 9 -13 8 -13 -8 -1 -14 11 -15 17 -5 28 6 8 7 13 2 12 -5 -2 -29 8
-54 21 -49 25 -154 35 -220 21z"/>
<path d="M6775 1179 c48 -5 41 -6 -32 -3 -67 2 -102 -1 -129 -12 -20 -8 -43
-13 -51 -9 -11 4 -14 0 -10 -14 3 -15 1 -18 -11 -14 -10 4 -13 2 -8 -5 3 -6 1
-14 -5 -18 -8 -5 -9 -3 -4 6 5 8 3 11 -6 8 -8 -3 -14 -10 -14 -16 0 -5 -4 -14
-9 -19 -5 -5 -6 -3 -2 5 4 6 2 12 -3 12 -6 0 -11 -4 -11 -10 0 -5 -6 -10 -14
-10 -12 0 -29 -28 -31 -52 0 -3 -4 -10 -9 -15 -5 -5 -6 -2 -1 6 5 9 4 12 -3 7
-7 -4 -17 -16 -23 -28 -8 -14 -8 -18 0 -14 7 4 9 1 5 -8 -3 -9 -11 -14 -17
-13 -7 1 -12 -8 -11 -20 0 -12 -3 -20 -7 -17 -5 3 -11 -8 -15 -23 -4 -15 -10
-32 -14 -38 -11 -15 -5 -153 9 -203 8 -28 16 -40 24 -36 9 5 9 4 0 -6 -9 -10
-8 -18 4 -36 8 -13 19 -22 23 -19 4 3 7 -2 6 -10 0 -7 2 -13 6 -12 11 3 88
-75 82 -84 -9 -15 55 -51 78 -44 16 4 19 3 10 -3 -11 -7 -10 -11 5 -16 67 -26
251 -47 239 -28 -3 5 23 9 57 9 50 0 76 7 125 32 35 17 60 36 57 40 -2 5 3 15
13 22 15 13 16 12 3 -3 -24 -31 4 -19 37 15 34 35 43 58 15 36 -16 -11 -16
-11 -5 1 7 8 18 15 24 15 6 0 13 6 16 14 3 9 0 11 -8 6 -8 -5 -11 -4 -6 3 4 6
13 9 20 6 15 -6 31 40 20 58 -4 7 -3 8 4 4 19 -12 31 63 27 169 -3 100 -22
180 -43 180 -6 0 -14 4 -19 9 -5 5 -3 6 5 2 7 -5 12 -1 12 9 0 11 -5 15 -14
12 -10 -4 -12 0 -9 14 5 17 -4 24 -28 21 -4 -1 -15 8 -24 18 -10 11 -15 20
-10 20 4 0 2 7 -5 15 -15 18 -35 20 -24 3 4 -7 3 -8 -5 -4 -6 4 -9 12 -5 17 9
16 -106 63 -157 63 -26 1 -45 4 -42 9 2 4 -29 6 -69 5 l-73 -1 60 -8z m52
-216 c-14 -4 -16 -8 -6 -19 13 -16 54 -20 44 -4 -11 18 1 11 21 -12 10 -12 13
-18 6 -14 -10 6 -11 1 -6 -21 9 -36 13 -41 23 -24 6 8 10 2 15 -19 9 -48 7
-133 -4 -150 -5 -8 -10 -10 -10 -5 -1 14 -29 -37 -30 -53 0 -8 5 -10 13 -6 7
4 9 3 4 -2 -5 -5 -12 -9 -15 -9 -14 0 -32 -17 -27 -25 3 -4 -2 -11 -11 -14 -8
-3 -13 -2 -10 2 2 4 -21 9 -52 9 -37 1 -51 -2 -41 -8 9 -6 10 -9 2 -9 -7 0
-27 14 -45 31 -18 18 -25 26 -14 18 16 -12 18 -11 15 6 -3 11 -11 20 -19 20
-16 0 -30 14 -30 30 0 6 4 3 10 -5 5 -9 8 16 5 70 -2 60 1 93 11 113 8 15 12
27 8 27 -4 0 -1 7 6 15 7 8 22 15 34 15 17 0 18 2 6 10 -10 6 -11 10 -2 10 20
0 20 0 49 15 16 8 37 14 48 14 18 -1 18 -2 2 -6z"/>
<path d="M2973 1156 c-4 -8 -6 -147 -3 -308 l5 -295 30 -58 c17 -32 37 -61 45
-63 13 -5 13 -3 0 14 -14 18 -14 18 3 5 17 -13 17 -15 0 -35 -10 -12 -12 -16
-5 -10 10 8 25 5 58 -12 62 -31 122 -39 196 -24 35 7 71 13 80 13 9 1 15 3 13
6 -3 2 9 13 26 23 16 10 28 22 25 27 -3 4 9 21 27 37 l32 29 -29 -32 c-26 -29
-27 -32 -8 -30 11 0 20 4 19 8 -2 6 4 9 18 9 2 0 0 -11 -5 -24 -12 -33 -2 -36
151 -36 l129 0 3 373 2 372 0 -375 0 -375 -140 -5 -140 -6 142 -2 c140 -2 143
-2 148 20 3 13 4 190 3 393 l-3 370 -149 3 c-82 1 -153 -1 -157 -5 -4 -5 -9
-117 -10 -250 -2 -145 -6 -241 -12 -240 -5 1 -12 -4 -15 -12 -3 -9 0 -11 9 -6
8 5 5 -1 -5 -13 -21 -25 -36 -31 -16 -7 16 19 10 19 -26 0 -42 -22 -61 -19
-94 15 -16 16 -30 25 -32 20 -2 -6 -3 104 -3 242 l0 253 -152 3 c-124 2 -153
0 -160 -12z"/>
<path d="M4930 1160 c-10 -6 -11 -10 -2 -10 15 0 18 -715 2 -725 -31 -19 4
-25 155 -25 l165 0 -1 383 c0 222 -4 374 -9 362 -8 -19 -9 -19 -9 3 -1 22 -3
22 -143 22 -79 0 -150 -5 -158 -10z"/>
</g>
</svg>
