<?xml version="1.0" standalone="no"?>
<!DOCTYPE svg PUBLIC "-//W3C//DTD SVG 20010904//EN"
 "http://www.w3.org/TR/2001/REC-SVG-20010904/DTD/svg10.dtd">
<svg version="1.0" xmlns="http://www.w3.org/2000/svg"
 width="300.000000pt" height="300.000000pt" viewBox="0 0 300.000000 300.000000"
 preserveAspectRatio="xMidYMid meet">
<metadata>
Created by potrace 1.10, written by Peter Selinger 2001-2011
</metadata>
<g transform="translate(0.000000,300.000000) scale(0.050000,-0.050000)"
fill="#000000" stroke="none">
<path d="M2804 5760 c-481 -126 -739 -518 -760 -1155 l-9 -285 -168 -124
c-201 -150 -200 -135 -25 -237 155 -91 168 -91 148 1 -13 60 -16 61 -60 32
-48 -32 -110 5 -110 65 0 26 94 69 118 54 8 -5 26 21 39 58 48 133 76 125 91
-26 12 -118 8 -147 -27 -207 l-41 -69 201 -124 c197 -124 200 -125 245 -89
101 81 426 359 473 406 28 28 87 77 131 110 44 32 185 147 314 254 129 108
243 196 253 196 11 0 45 30 77 67 31 36 157 150 281 253 124 102 225 193 225
201 0 8 -128 84 -285 170 -157 86 -310 173 -341 194 -47 33 -61 35 -90 12
-188 -146 -463 -386 -500 -436 -26 -35 -57 -60 -70 -56 -13 5 -101 -56 -195
-133 -95 -78 -219 -179 -276 -225 -57 -46 -93 -87 -81 -91 27 -9 -78 -83 -118
-83 -15 0 -36 -22 -47 -50 -73 -192 -91 250 -20 503 140 503 377 712 867 764
232 25 719 -58 946 -160 125 -57 432 -154 630 -199 83 -19 177 -43 210 -54
140 -49 154 -47 147 15 -6 51 -18 60 -107 81 -165 39 -592 161 -710 203 -557
199 -1011 254 -1356 164z m711 -348 c-21 -16 -31 -40 -23 -59 14 -37 -7 -42
-51 -14 -36 23 24 101 77 100 28 0 27 -4 -3 -27z m-52 -161 c13 -28 30 -45 39
-40 8 5 20 1 27 -9 6 -10 29 -13 52 -8 22 6 39 3 37 -6 -9 -52 3 -75 26 -52
34 34 63 30 49 -6 -7 -18 0 -30 17 -30 15 0 35 -12 44 -28 9 -15 33 -31 54
-35 56 -10 62 -51 10 -68 -31 -10 -53 -4 -70 20 -13 18 -32 35 -41 37 -9 2
-15 10 -12 18 2 8 -8 10 -23 4 -15 -6 -41 4 -58 21 -17 17 -43 31 -58 32 -14
0 -42 13 -63 28 -32 24 -41 23 -77 -13 -31 -31 -45 -34 -56 -16 -9 14 -25 19
-36 12 -12 -7 -27 -4 -34 8 -20 32 -44 23 -56 -20 -6 -25 2 -47 23 -59 30 -18
29 -20 -4 -20 -40 -1 -199 -81 -210 -106 -3 -8 -15 -10 -25 -4 -10 6 -18 -11
-18 -38 0 -35 14 -52 50 -61 28 -7 50 -21 50 -31 0 -11 32 -34 70 -52 39 -19
70 -46 70 -62 0 -16 11 -27 25 -26 92 12 98 -24 16 -100 -33 -31 -53 -63 -45
-72 8 -8 2 -9 -12 0 -27 15 -104 -39 -104 -74 0 -27 -53 -75 -68 -61 -6 7 -13
0 -14 -16 -4 -59 -452 -455 -543 -479 -47 -12 -101 -31 -120 -41 -45 -24 -137
-23 -175 2 -25 16 -25 19 -2 20 102 1 136 144 42 177 -48 17 -60 32 -60 79 0
32 -6 113 -13 179 l-12 121 97 43 c53 23 112 56 131 74 26 23 43 25 71 9 33
-19 33 -21 1 -21 -19 -1 -35 -10 -35 -21 0 -10 -21 -24 -46 -31 -83 -21 -99
-78 -32 -117 66 -39 71 -56 26 -93 -26 -22 -39 -22 -75 0 -42 26 -42 26 -6
-15 20 -23 31 -51 24 -63 -28 -45 17 -17 100 62 48 46 85 93 83 104 -2 12 28
20 71 19 42 -2 70 5 64 16 -6 10 -33 18 -60 18 -43 0 -46 5 -29 51 27 70 25
115 -3 97 -15 -9 -18 -5 -8 10 8 13 32 18 53 11 25 -7 38 -2 38 15 0 15 -18
27 -40 27 -22 0 -40 -6 -40 -13 0 -20 -78 -37 -89 -19 -6 8 28 42 75 76 83 60
94 65 135 65 12 0 16 9 9 20 -11 18 31 30 76 22 10 -2 11 6 4 17 -12 21 159
200 261 271 31 22 74 60 96 84 21 25 47 40 57 33 10 -6 23 6 29 27 17 65 89
98 121 55 14 -20 26 -28 26 -17 0 11 -10 30 -22 42 -34 34 -3 66 64 66 43 0
65 -13 81 -49z m390 -31 c56 0 75 -28 39 -59 -21 -17 -32 -17 -42 -1 -8 13
-27 18 -42 12 -15 -6 -28 -3 -28 7 0 10 -6 34 -13 54 -11 30 -8 32 14 12 15
-14 47 -25 72 -25z m187 -92 c0 -22 11 -28 34 -19 30 11 29 8 -3 -28 -45 -49
-71 -52 -71 -9 0 25 -6 28 -27 11 -15 -13 -33 -16 -41 -9 -13 14 63 85 93 86
8 0 15 -14 15 -32z m-522 -43 c12 -19 21 -28 21 -19 1 8 19 -1 41 -22 22 -20
80 -57 129 -82 104 -51 123 -73 80 -90 -36 -13 -149 39 -149 69 0 10 -11 17
-25 14 -14 -3 -23 6 -20 19 3 15 -8 20 -29 12 -22 -9 -28 -5 -18 10 9 16 3 19
-17 12 -17 -7 -31 -2 -31 10 0 12 -18 22 -40 22 -45 0 -51 21 -16 56 33 33 50
30 74 -11z m-329 -247 c-11 -37 -8 -39 29 -19 33 17 52 15 92 -11 27 -18 63
-27 79 -21 16 6 36 0 44 -13 7 -13 6 -17 -3 -9 -10 9 -38 -4 -63 -28 -51 -47
-107 -36 -207 44 -49 39 -49 40 -11 69 51 39 56 38 40 -12z m396 -9 c7 -38 3
-49 -17 -41 -15 6 -25 4 -23 -5 3 -9 -29 -48 -70 -87 -79 -74 -97 -68 -43 15
18 27 27 63 20 81 -8 20 -3 28 13 23 13 -4 42 8 63 28 49 46 45 47 57 -14z
m-1132 -1121 c-32 -27 -63 -45 -69 -39 -17 17 59 91 94 90 23 0 16 -15 -25
-51z"/>
<path d="M2862 4722 c-22 -14 -20 -20 10 -26 31 -7 27 -14 -27 -43 -115 -60
-74 -153 67 -153 144 0 230 122 108 154 -22 6 -40 19 -40 30 0 10 -9 13 -20 6
-11 -7 -20 -3 -20 9 0 30 44 26 96 -10 52 -37 60 -16 9 23 -40 31 -142 36
-183 10z"/>
<path d="M2579 4255 c-13 -25 -69 -87 -124 -138 l-102 -93 63 -32 c87 -45 94
-43 221 63 168 141 171 145 136 145 -16 0 -57 23 -89 50 -73 61 -77 61 -105 5z"/>
<path d="M4248 5111 c9 -38 -3 -67 -52 -123 -60 -68 -62 -72 -18 -59 32 11 43
8 33 -7 -7 -12 -4 -22 8 -22 40 0 23 -136 -23 -179 -24 -23 -52 -41 -62 -41
-10 0 -13 -13 -7 -28 11 -31 -45 -92 -85 -92 -14 0 -18 -10 -9 -25 9 -16 2
-15 -20 3 -20 16 -33 20 -31 10 7 -28 -24 -88 -45 -88 -11 0 -56 -40 -101 -90
-45 -49 -95 -90 -110 -90 -16 0 -23 -8 -17 -18 6 -9 -11 -22 -38 -27 -34 -6
-52 1 -59 23 -5 18 -6 3 -3 -32 4 -38 -4 -74 -21 -88 -15 -12 -28 -16 -28 -7
0 9 -27 -9 -60 -41 -40 -39 -61 -48 -62 -29 0 16 -10 4 -21 -26 -11 -30 -33
-55 -48 -55 -16 0 -34 -23 -41 -50 -8 -32 -25 -49 -45 -45 -18 3 -31 -6 -28
-20 3 -14 -8 -25 -25 -25 -16 0 -30 -13 -30 -30 0 -16 -9 -30 -19 -30 -11 0
-55 -34 -98 -75 -99 -95 -137 -125 -157 -125 -9 0 -37 -27 -63 -60 -26 -33
-54 -56 -62 -51 -8 5 -50 -28 -93 -73 -43 -45 -67 -76 -53 -68 16 9 21 4 13
-17 -7 -17 -20 -26 -29 -20 -9 5 -27 -8 -39 -31 -12 -23 -31 -36 -41 -29 -10
6 -19 -2 -19 -17 0 -36 -56 -85 -75 -65 -81 80 -23 335 85 374 11 4 18 13 15
21 -11 33 108 95 136 70 22 -20 23 -18 4 7 -30 40 4 81 52 66 25 -8 27 -6 7 8
-21 15 -16 26 21 50 66 43 284 255 263 255 -10 0 -81 -55 -158 -122 -77 -67
-175 -150 -218 -185 -43 -35 -112 -92 -153 -128 -47 -41 -86 -61 -107 -53 -20
8 -32 2 -33 -15 0 -18 -10 -14 -30 12 -16 21 -29 32 -29 25 0 -8 -34 7 -75 33
-144 90 -166 98 -152 58 19 -52 69 -105 101 -105 16 0 22 -10 14 -23 -8 -13
-5 -18 6 -11 11 7 37 0 58 -16 21 -16 56 -29 78 -29 34 -1 41 -16 46 -109 6
-114 -33 -137 -98 -60 -13 15 -40 28 -60 28 -21 0 -38 9 -38 20 0 11 -10 20
-23 20 -12 0 -48 26 -78 58 -31 32 -61 53 -67 47 -7 -6 -12 -1 -12 12 0 12
-14 23 -31 23 -16 0 -35 13 -42 30 -6 16 -19 25 -29 19 -24 -15 -117 54 -117
87 -1 15 7 21 18 15 10 -6 24 -3 31 9 7 11 -5 20 -27 20 -61 0 -103 21 -103
52 0 15 8 28 18 28 10 0 16 16 15 35 -2 26 10 34 46 29 44 -4 36 9 -63 108
-62 62 -120 108 -130 102 -32 -20 9 -422 45 -444 18 -11 203 -131 411 -267
l378 -247 315 280 c173 154 313 290 310 303 -4 13 3 18 14 12 11 -7 94 53 185
134 91 81 364 321 606 534 242 213 446 393 453 399 8 7 17 81 21 166 5 85 14
161 22 168 15 16 -78 108 -109 108 -13 0 -16 -20 -9 -49z"/>
<path d="M4428 4989 c-33 -25 -33 -27 -3 -17 28 10 32 5 22 -23 -11 -28 -6
-33 21 -23 22 9 29 6 21 -8 -17 -26 69 -4 101 25 48 46 -106 90 -162 46z"/>
<path d="M4320 4667 c-170 -150 -377 -333 -460 -407 -578 -519 -1394 -1235
-1555 -1363 -210 -167 -209 -167 -351 -71 -30 21 -68 33 -83 27 -16 -6 -32 0
-36 13 -4 12 -13 3 -20 -22 -6 -24 -2 -44 9 -44 11 0 15 -13 9 -30 -8 -19 1
-31 23 -33 19 -2 43 -5 54 -8 11 -2 36 -5 56 -7 20 -1 31 -11 24 -22 -7 -11
-3 -20 8 -20 41 0 85 -117 61 -161 -15 -29 -15 -49 -1 -67 11 -13 20 -66 19
-116 -1 -51 4 -101 11 -113 29 -47 34 -221 8 -270 l-26 -50 -80 58 c-242 174
-470 314 -470 287 0 -7 -17 9 -38 35 -37 45 -40 45 -77 12 -21 -19 -52 -35
-68 -35 -30 0 -111 -74 -95 -87 4 -3 134 -90 288 -193 154 -103 287 -197 295
-209 33 -48 14 -110 -41 -139 -32 -16 -69 -44 -83 -61 -24 -28 -29 -28 -53 4
-18 23 -27 26 -27 9 -1 -15 -10 -21 -21 -14 -12 7 -20 6 -18 -4 13 -75 -5
-128 -41 -122 -22 3 -52 -12 -69 -34 -26 -35 -35 -37 -76 -14 -32 18 -27 10
14 -25 38 -32 66 -43 79 -30 10 10 39 19 63 19 48 0 372 278 490 422 66 80 76
85 108 58 34 -29 35 -23 21 100 -28 238 -66 710 -60 740 3 17 7 36 7 42 1 7
24 10 51 7 27 -3 63 11 82 32 19 21 41 34 49 29 8 -5 72 44 142 109 71 65 144
132 163 149 20 19 29 45 21 65 -8 22 -5 29 9 20 12 -8 28 -4 36 8 7 12 26 17
41 11 15 -6 25 -3 23 5 -3 9 40 54 95 101 244 208 350 311 350 339 0 16 6 24
13 16 8 -7 28 0 45 16 18 15 37 27 44 25 30 -9 113 75 103 104 -6 18 -4 26 4
18 9 -8 34 8 55 35 22 27 49 43 61 36 12 -7 16 -4 9 6 -6 11 15 35 47 55 33
19 55 43 48 53 -6 11 7 19 30 19 22 0 41 12 41 27 0 15 23 37 50 49 28 13 50
37 50 54 0 16 9 30 19 30 21 0 194 143 349 288 55 51 106 92 115 92 10 0 17
14 17 30 0 17 9 31 20 33 11 1 29 4 40 7 11 3 29 6 40 8 11 1 45 29 77 62 32
33 70 60 86 60 66 0 100 49 93 135 l-6 84 -310 -272z"/>
<path d="M4668 4758 c6 -35 12 -92 12 -128 0 -58 5 -64 50 -55 42 8 48 4 37
-25 -12 -33 -10 -33 37 -2 27 17 56 26 64 18 8 -8 22 -2 32 13 13 22 23 23 45
5 16 -13 35 -18 42 -10 30 30 10 -22 -27 -69 -22 -28 -40 -65 -40 -84 0 -69
-59 -119 -60 -51 -1 49 -18 70 -91 114 l-89 54 0 -209 c0 -115 8 -209 18 -209
41 0 82 26 82 51 0 23 174 168 288 239 75 47 1 185 -136 254 -67 34 -150 83
-184 109 -82 62 -95 59 -80 -15z"/>
<path d="M5142 4405 c-13 -52 -27 -108 -30 -125 -3 -16 -12 -50 -20 -74 -24
-74 -27 -484 -3 -496 14 -7 14 -13 0 -20 -11 -6 -17 -46 -13 -89 7 -68 -1 -85
-57 -135 -104 -89 -199 -192 -189 -203 10 -10 -117 -103 -140 -103 -7 0 -45
-34 -84 -75 -39 -41 -83 -72 -98 -69 -15 3 -33 -18 -40 -47 -10 -40 -18 -46
-32 -26 -13 20 -16 16 -11 -13 5 -22 -6 -67 -23 -100 l-31 -60 -7 55 c-12 95
-64 68 -64 -34 0 -90 -31 -137 -61 -90 -12 21 -34 14 -97 -30 -47 -32 -94 -51
-113 -44 -58 23 -375 -172 -406 -250 -3 -9 -15 -17 -26 -17 -10 0 -38 -18 -62
-40 -23 -22 -54 -40 -69 -40 -24 0 -35 -26 -28 -66 2 -10 -5 -12 -14 -6 -9 5
-46 -16 -82 -49 -35 -32 -68 -59 -73 -59 -5 0 -64 -54 -132 -120 -68 -66 -141
-120 -163 -120 -26 0 -35 -10 -26 -31 6 -17 -1 -35 -18 -42 -16 -6 -24 -21
-17 -32 7 -12 4 -16 -7 -9 -52 32 -233 -192 -228 -282 6 -119 -10 -156 -78
-184 -33 -14 -55 -33 -49 -42 6 -10 4 -18 -5 -18 -9 -1 -52 -32 -96 -71 -44
-38 -102 -89 -130 -112 -27 -24 -48 -46 -45 -50 3 -4 5 -18 5 -32 -1 -19 -5
-18 -18 2 -12 20 -20 13 -30 -25 -7 -29 -25 -52 -40 -52 -15 0 -49 -22 -75
-50 -26 -27 -63 -49 -82 -50 -19 0 -34 -7 -33 -15 8 -45 -7 -65 -47 -65 -36
-1 -39 -4 -15 -20 26 -17 26 -19 -2 -20 -18 0 -75 -54 -126 -120 -92 -117
-132 -145 -132 -95 -1 17 -6 16 -19 -4 -29 -46 -110 3 -135 82 -12 37 -23 52
-24 34 -2 -27 -16 -22 -68 25 -98 86 -351 258 -379 257 -14 0 -6 -16 18 -36
29 -25 40 -51 34 -85 -8 -40 6 -58 90 -108 90 -54 97 -63 70 -93 -20 -22 -23
-37 -8 -46 11 -7 21 -3 21 9 0 37 94 126 118 111 51 -31 -33 -172 -102 -170
-41 1 -303 202 -282 216 29 19 51 123 26 123 -11 0 -20 26 -20 58 0 32 -27
123 -59 203 -95 232 -127 231 -79 -3 12 -60 28 -184 35 -278 l13 -170 206
-136 205 -135 68 52 69 52 108 -80 108 -80 128 131 c70 72 173 166 228 210 55
44 246 215 425 380 l326 299 -13 99 c-13 99 -13 100 74 174 48 41 263 227 478
415 718 627 756 656 791 620 38 -37 83 -40 117 -6 14 14 234 213 489 444 l463
418 0 537 c0 534 -11 621 -58 441z"/>
<path d="M3443 4293 c-24 -25 -37 -53 -28 -63 8 -9 -1 -11 -20 -4 -19 7 -35 4
-35 -7 0 -37 59 -19 82 26 13 25 34 51 45 59 12 8 17 19 11 25 -6 6 -31 -10
-55 -36z"/>
<path d="M3309 4244 c-54 -39 -67 -76 -28 -79 21 -1 44 8 52 20 9 14 1 17 -25
8 -37 -13 -37 -12 1 17 37 29 38 61 0 34z"/>
<path d="M3125 4079 c-43 -38 -55 -59 -35 -59 17 0 36 14 43 30 6 17 20 30 30
30 11 0 14 -9 7 -20 -7 -11 -4 -20 6 -20 11 0 19 23 19 50 0 28 -1 50 -2 49
-2 0 -32 -27 -68 -60z"/>
<path d="M4538 4037 c-15 -20 -41 -37 -57 -38 -17 0 -62 -31 -100 -70 -38 -38
-83 -69 -100 -69 -25 -1 -26 -4 -4 -18 19 -12 21 -21 5 -31 -12 -7 -22 -6 -22
3 0 9 -18 -13 -40 -49 -30 -50 -53 -65 -100 -65 -33 0 -60 -11 -60 -24 0 -13
-20 -44 -43 -70 -31 -32 -36 -46 -16 -46 16 0 -5 -22 -45 -50 -41 -27 -81 -50
-90 -50 -24 0 -123 -116 -110 -129 6 -6 -8 -11 -30 -11 -23 0 -81 -44 -134
-100 -52 -55 -98 -100 -104 -100 -6 0 -40 -29 -75 -64 -34 -35 -52 -57 -38
-49 17 10 21 5 13 -16 -7 -17 -19 -27 -27 -22 -8 6 -32 -4 -53 -21 -21 -17
-25 -24 -10 -16 18 9 23 6 15 -7 -7 -12 -31 -17 -53 -11 -28 7 -53 -6 -82 -42
-23 -29 -51 -46 -63 -39 -13 8 -15 4 -6 -11 30 -48 -357 -395 -427 -384 -17 3
-23 -6 -16 -26 8 -20 -8 -43 -47 -66 -32 -19 -60 -44 -61 -55 -1 -12 -55 -68
-120 -126 -65 -58 -112 -105 -106 -105 7 0 -3 -23 -21 -52 -60 -90 -26 -68
179 117 110 100 504 455 875 790 371 335 675 617 675 627 0 10 9 18 21 18 24
0 559 479 559 500 0 28 -57 12 -82 -23z"/>
<path d="M4590 3966 c-33 -28 -136 -122 -230 -206 -93 -85 -548 -495 -1010
-910 -1181 -1062 -1110 -995 -1029 -980 72 14 182 93 171 122 -7 18 13 38 54
56 83 36 167 103 104 82 -26 -8 -33 -6 -20 7 11 11 33 23 49 27 42 9 121 80
110 98 -6 9 8 12 31 8 23 -4 36 0 30 11 -7 10 8 34 32 53 88 72 310 262 363
312 30 29 55 47 55 42 0 -6 14 3 30 19 17 17 30 39 30 49 0 11 61 69 135 129
74 60 178 151 232 202 53 52 104 89 113 83 9 -6 22 6 29 27 6 20 34 48 61 63
27 14 44 33 39 41 -14 23 12 79 37 79 45 0 176 106 151 122 -17 11 -8 23 29
40 30 13 54 32 54 41 0 9 10 17 22 17 12 0 45 18 73 40 28 22 67 40 87 40 19
0 41 8 47 18 6 10 -7 14 -29 8 -22 -6 -40 -6 -40 0 0 24 123 138 155 143 19 2
32 13 29 22 -12 30 81 53 99 25 12 -19 16 -19 17 -2 0 13 -8 29 -18 35 -10 6
-14 29 -8 51 14 54 -12 49 -84 -14z"/>
<path d="M1841 3791 c-30 -36 2 -56 57 -36 40 15 40 16 3 39 -30 19 -42 18
-60 -3z"/>
<path d="M1518 3466 c-59 -49 -139 -121 -176 -159 l-69 -69 59 -424 c54 -398
61 -424 100 -424 23 0 54 -10 70 -23 33 -26 90 -8 86 28 -2 14 -4 35 -5 47 -2
12 -16 17 -33 10 -16 -7 -43 -17 -60 -24 -21 -9 -30 0 -30 30 0 23 9 42 20 42
26 0 26 54 1 63 -12 4 -13 36 -2 82 9 41 10 75 1 75 -9 0 -14 15 -12 33 3 19
-1 71 -10 115 -8 45 -6 92 4 104 10 12 11 30 3 39 -8 10 -1 7 15 -5 25 -19 35
-14 53 24 21 44 14 54 -95 130 -134 94 -144 110 -57 93 34 -7 56 -4 50 5 -6
10 4 23 22 30 18 7 27 19 20 26 -16 16 71 78 97 69 11 -4 54 -11 96 -15 91 -9
213 -63 228 -101 6 -15 21 -27 33 -27 13 0 62 -36 110 -79 64 -58 117 -85 196
-102 73 -15 103 -29 93 -45 -7 -14 1 -12 20 3 19 16 34 30 34 33 0 4 -104 72
-230 153 -127 81 -296 193 -377 249 l-146 103 -109 -89z"/>
<path d="M1635 3212 c-56 -42 2 -107 155 -170 10 -5 31 -20 46 -35 36 -36 51
-34 92 10 30 34 -104 152 -248 217 -5 3 -26 -7 -45 -22z"/>
<path d="M998 2150 c-115 -91 -123 -108 -142 -307 -1 -15 -24 -36 -49 -48 -26
-12 -47 -34 -47 -49 0 -16 8 -23 18 -17 10 6 13 -8 7 -32 -7 -27 -4 -38 9 -31
13 8 38 -73 66 -217 43 -219 49 -232 107 -263 34 -17 173 -111 309 -209 284
-203 270 -197 255 -112 -6 36 -22 139 -34 230 -21 154 -27 168 -87 205 -87 54
-85 57 -63 -90 16 -106 26 -130 56 -130 20 0 37 -9 37 -20 0 -38 -53 -20 -131
45 -44 36 -105 79 -137 95 -153 78 -217 228 -184 433 7 42 4 108 -7 146 -22
75 -2 117 42 89 15 -10 32 -18 37 -19 31 -6 120 -58 120 -71 0 -8 19 -21 41
-28 23 -8 49 -33 59 -57 l17 -43 2 42 c1 29 -27 61 -84 98 -47 31 -123 86
-169 123 l-84 68 42 72 c25 41 72 84 111 100 56 24 64 34 44 58 -33 40 -35 40
-161 -61z m294 -1112 c189 -131 190 -165 1 -39 -43 28 -99 65 -125 81 -44 28
-64 60 -36 60 6 0 78 -46 160 -102z"/>
<path d="M1129 2140 c-61 -23 -94 -73 -79 -119 7 -23 20 -37 30 -31 9 6 41 1
72 -11 83 -31 134 -3 58 33 l-60 28 75 -11 c84 -12 102 22 40 75 -50 43 -89
53 -136 36z"/>
<path d="M1434 1860 c-53 -62 -45 -103 18 -88 47 12 51 9 39 -29 -17 -54 12
-55 59 -3 20 22 48 40 63 40 37 0 34 50 -4 89 -44 43 -133 39 -175 -9z"/>
<path d="M1007 1518 c7 -34 13 -90 13 -123 0 -52 6 -58 44 -48 24 6 56 2 70
-10 30 -25 34 0 14 100 -9 42 -35 75 -83 103 l-70 42 12 -64z"/>
<path d="M1602 860 c-3 -75 43 -360 59 -360 7 0 1 79 -14 175 -34 216 -42 249
-45 185z"/>
</g>
</svg>
