<?xml version="1.0" standalone="no"?>
<!DOCTYPE svg PUBLIC "-//W3C//DTD SVG 20010904//EN"
 "http://www.w3.org/TR/2001/REC-SVG-20010904/DTD/svg10.dtd">
<svg version="1.0" xmlns="http://www.w3.org/2000/svg"
 width="300.000000pt" height="300.000000pt" viewBox="0 0 300.000000 300.000000"
 preserveAspectRatio="xMidYMid meet">
<metadata>
Created by potrace 1.10, written by Peter Selinger 2001-2011
</metadata>
<g transform="translate(0.000000,300.000000) scale(0.050000,-0.050000)"
fill="#000000" stroke="none">
<path d="M2051 3866 c-8 -329 -11 -1104 -8 -1722 l7 -1124 625 0 625 0 0 295
c0 162 6 545 13 850 l13 555 157 0 c91 0 157 8 157 20 0 12 -67 20 -160 20
l-160 0 -1 445 c-1 245 -6 624 -11 843 l-10 399 -616 9 -616 9 -15 -599z m443
371 c57 -54 57 -72 3 -131 -83 -87 -277 -43 -277 64 0 104 185 150 274 67z
m621 4 c59 -49 57 -108 -4 -149 -101 -66 -271 -17 -271 78 0 98 185 146 275
71z m89 -400 l74 -1 -4 -140 -4 -140 -583 0 -584 0 -7 135 c-4 74 -4 143 1
152 4 10 239 12 521 6 281 -7 545 -12 586 -12z m66 -701 l0 -380 -133 0 c-74
0 -148 -6 -166 -12 -22 -9 -38 5 -53 48 -57 164 -384 166 -468 3 -92 -178 204
-321 408 -198 36 23 62 55 62 79 0 37 13 40 175 40 l175 0 0 -380 0 -380 -585
0 -585 0 0 780 0 780 585 0 585 0 0 -380z m2 -1376 l-2 -154 -205 0 c-113 1
-379 3 -593 5 l-387 5 9 135 c5 74 12 144 15 155 4 13 211 18 585 14 l579 -5
-1 -155z m-770 -338 c123 -73 52 -208 -110 -211 -160 -2 -222 101 -119 196 63
58 147 63 229 15z m591 -8 c124 -76 46 -206 -123 -203 -113 2 -150 31 -150
117 0 117 147 164 273 86z"/>
<path d="M2300 3721 c0 -80 1 -81 71 -81 43 0 66 8 59 20 -7 11 -30 20 -51 20
-28 0 -39 14 -39 49 0 27 -9 54 -20 61 -12 7 -20 -20 -20 -69z"/>
<path d="M2958 3775 c-33 -89 -2 -174 38 -104 15 29 19 29 43 0 41 -49 61 -37
61 39 0 39 -9 70 -20 70 -11 0 -20 -15 -20 -33 0 -31 -3 -31 -37 0 -33 30 -60
41 -65 28z"/>
<path d="M2564 3429 c-95 -67 -11 -209 124 -209 133 0 218 163 113 219 -57 31
-186 25 -237 -10z"/>
<path d="M2300 2200 l0 -120 390 0 390 0 0 120 0 120 -390 0 -390 0 0 -120z
m740 0 l0 -80 -362 0 -363 0 12 45 c7 25 13 61 13 80 0 32 30 35 350 35 l350
0 0 -80z"/>
<path d="M2464 2197 c11 -31 74 -37 81 -7 3 11 -16 23 -42 27 -33 4 -45 -2
-39 -20z"/>
<path d="M2640 2190 c0 -23 14 -31 45 -26 25 3 45 15 45 26 0 11 -20 23 -45
26 -31 5 -45 -3 -45 -26z"/>
<path d="M2825 2195 c13 -38 75 -43 75 -6 0 18 -17 31 -42 31 -24 0 -38 -10
-33 -25z"/>
<path d="M2364 1816 c-59 -59 -19 -143 78 -160 46 -8 52 -3 54 51 3 113 -69
172 -132 109z m86 -66 c0 -22 -16 -42 -35 -46 -26 -5 -35 6 -35 46 0 40 9 51
35 46 19 -4 35 -24 35 -46z"/>
<path d="M2940 1752 c0 -52 9 -72 31 -72 23 0 30 17 25 63 -9 92 -56 99 -56 9z"/>
<path d="M3751 2889 c-59 -60 -24 -140 76 -176 58 -21 26 -63 -45 -60 -97 5
-76 -61 22 -69 140 -12 176 147 45 196 -74 29 -65 88 11 73 43 -9 60 -4 60 15
0 56 -119 70 -169 21z"/>
</g>
</svg>
