<?xml version="1.0" standalone="no"?>
<!DOCTYPE svg PUBLIC "-//W3C//DTD SVG 20010904//EN"
 "http://www.w3.org/TR/2001/REC-SVG-20010904/DTD/svg10.dtd">
<svg version="1.0" xmlns="http://www.w3.org/2000/svg"
 width="900.000000pt" height="675.000000pt" viewBox="0 0 900.000000 675.000000"
 preserveAspectRatio="xMidYMid meet">
<metadata>
Created by potrace 1.10, written by Peter Selinger 2001-2011
</metadata>
<g transform="translate(0.000000,675.000000) scale(0.100000,-0.100000)"
fill="#000000" stroke="none">
<path d="M2980 5696 c-7 -9 -18 -16 -24 -16 -6 0 -35 -24 -63 -54 l-53 -54 0
-184 c0 -102 -4 -241 -9 -309 -5 -68 -12 -270 -15 -449 -4 -179 -11 -413 -16
-520 -6 -107 -15 -370 -21 -585 -6 -214 -13 -445 -16 -512 l-5 -122 53 -73
c101 -136 254 -301 380 -409 35 -30 68 -59 74 -65 23 -24 260 -194 271 -194 3
0 20 -11 37 -24 18 -13 46 -30 62 -38 17 -9 82 -42 145 -74 63 -33 142 -70
175 -83 33 -13 74 -29 92 -37 17 -8 36 -14 41 -14 6 0 32 -11 58 -25 46 -24
52 -25 255 -25 141 0 210 -4 215 -11 9 -15 -22 -41 -131 -114 -102 -69 -165
-102 -285 -151 -47 -20 -101 -42 -120 -51 -90 -39 -122 -51 -230 -84 -144 -44
-239 -67 -329 -80 -41 -5 -78 -12 -83 -15 -4 -3 -90 -12 -190 -20 -258 -22
-457 -7 -733 52 -111 24 -166 41 -300 91 -83 32 -266 120 -335 162 -19 11 -42
24 -50 28 -8 3 -31 19 -51 35 -20 15 -40 28 -44 28 -15 0 -170 127 -245 200
-56 55 -150 187 -150 211 0 7 -6 20 -14 28 -7 9 -23 44 -35 79 l-21 62 28 39
c25 34 30 53 35 128 6 80 20 158 48 283 38 164 33 222 -25 283 -32 34 -45 59
-59 113 -9 38 -17 79 -17 90 0 26 -24 48 -44 41 -11 -5 -13 -22 -9 -84 5 -80
1 -98 -38 -162 -27 -45 -48 -108 -55 -167 -3 -27 -10 -62 -15 -79 -5 -16 -13
-66 -18 -110 -16 -129 -31 -218 -42 -250 -8 -23 -7 -38 5 -68 9 -20 20 -37 25
-37 4 0 16 -30 25 -67 20 -76 73 -210 93 -234 7 -8 13 -19 13 -22 0 -15 78
-116 140 -180 57 -60 268 -231 310 -251 23 -11 56 -31 71 -43 29 -22 184 -103
284 -148 130 -58 164 -70 333 -119 26 -7 83 -21 127 -30 44 -10 100 -22 125
-27 65 -15 285 -32 430 -33 199 -2 405 20 580 59 36 8 72 15 81 15 9 0 39 6
65 14 27 8 83 25 124 37 41 12 79 26 84 31 6 4 17 8 26 8 29 0 365 150 455
203 70 42 307 212 379 271 l48 41 462 0 c488 0 469 -1 581 46 11 4 45 18 75
30 60 24 298 140 342 167 313 193 543 388 731 622 108 134 101 85 88 615 -6
253 -13 629 -16 835 -3 206 -8 402 -9 435 -2 33 -7 200 -10 370 -4 171 -12
356 -18 413 l-11 102 -59 62 -59 62 -172 8 c-95 4 -181 10 -192 13 -11 3 -225
10 -475 15 -250 5 -498 14 -550 20 -52 5 -210 10 -350 10 -140 0 -331 5 -425
11 -93 6 -280 14 -415 19 -135 5 -274 14 -309 20 -54 10 -69 9 -100 -4 -32
-15 -48 -15 -136 -5 -55 6 -271 14 -481 16 -335 4 -382 2 -394 -11z m920 -152
c261 -3 495 -7 520 -10 25 -2 367 -8 760 -14 393 -5 859 -14 1035 -20 176 -6
404 -10 506 -10 l187 0 39 -40 40 -39 7 -408 c3 -224 11 -484 16 -578 5 -93 9
-345 9 -560 1 -214 6 -473 12 -574 12 -204 7 -242 -39 -282 l-26 -22 -795 2
c-438 1 -933 4 -1101 6 -168 2 -645 7 -1060 10 -415 3 -810 8 -877 11 -121 6
-123 6 -148 36 l-25 30 0 271 c0 150 7 524 15 832 8 308 15 721 15 918 0 485
-15 460 265 452 94 -3 384 -7 645 -11z m1952 -2807 c3 -71 9 -135 12 -143 3
-7 6 -79 7 -158 1 -111 4 -148 15 -157 9 -8 43 -10 101 -7 74 4 97 10 145 37
32 17 62 31 67 31 5 0 38 19 73 42 35 23 75 49 89 58 75 44 99 61 183 134 50
43 122 110 159 147 60 60 67 71 57 89 -9 17 -7 22 16 30 15 6 61 9 103 8 l76
-3 3 -60 2 -60 -52 -55 c-29 -30 -82 -80 -117 -110 -35 -30 -77 -67 -92 -82
-33 -32 -171 -136 -216 -164 -17 -10 -70 -45 -117 -77 -47 -32 -94 -60 -103
-64 -10 -3 -31 -16 -48 -28 -93 -68 -216 -92 -367 -72 l-56 8 -4 55 c-1 30 1
67 5 82 12 41 9 385 -5 490 -10 82 -10 96 5 128 12 24 23 34 35 32 15 -3 18
-21 24 -131z m833 93 c39 -6 21 -8 -82 -9 -79 0 -134 3 -138 9 -7 12 145 12
220 0z"/>
<path d="M3623 4799 c-37 -23 -48 -60 -39 -124 8 -53 26 -69 76 -70 21 0 45
-7 54 -14 9 -7 16 -12 17 -10 0 2 3 42 5 89 4 90 0 101 -46 133 -30 21 -28 21
-67 -4z m69 -46 c10 -9 18 -28 18 -44 0 -21 -8 -31 -40 -47 -22 -10 -42 -17
-45 -14 -10 10 -5 98 7 110 17 17 38 15 60 -5z"/>
<path d="M3923 4795 c-8 -15 -10 -121 -4 -177 1 -5 20 -8 44 -7 34 0 46 5 65
29 14 18 21 37 18 47 -9 28 -55 73 -74 73 -11 0 -22 12 -28 28 -10 26 -11 26
-21 7z m72 -106 c7 -22 -10 -49 -31 -49 -15 0 -21 70 -7 83 9 9 31 -11 38 -34z"/>
<path d="M4484 4797 c-3 -8 -4 -52 -2 -98 2 -67 6 -84 18 -84 9 0 17 13 20 35
4 26 11 36 30 40 34 8 32 34 -3 38 -35 4 -33 33 3 42 14 3 26 14 28 23 3 14
-5 17 -43 17 -29 0 -48 -5 -51 -13z"/>
<path d="M4977 4804 c-4 -4 -7 -50 -7 -101 0 -71 3 -94 13 -91 6 3 13 24 15
49 1 24 5 50 8 58 9 25 28 -6 34 -54 7 -60 24 -62 28 -4 4 62 -11 100 -40 96
-15 -1 -23 4 -26 18 -5 25 -16 38 -25 29z"/>
<path d="M5176 4788 c-3 -13 -6 -55 -6 -95 0 -82 9 -93 72 -86 51 7 63 25 63
100 0 56 -3 67 -24 84 -14 11 -39 19 -61 19 -31 0 -39 -4 -44 -22z m82 -27 c9
-5 12 -25 10 -62 -3 -50 -5 -54 -28 -54 -23 0 -25 4 -28 49 -5 71 9 91 46 67z"/>
<path d="M6132 4787 c-32 -34 -32 -137 0 -167 33 -31 50 -26 80 22 13 20 24
26 50 25 23 -2 33 2 33 13 0 9 -10 15 -25 16 -36 0 -50 11 -50 38 0 27 -35 76
-54 76 -7 0 -22 -10 -34 -23z m48 -42 c24 -29 -4 -116 -32 -99 -10 6 -11 98
-1 107 10 11 19 8 33 -8z"/>
<path d="M6362 4782 c-37 -33 -41 -52 -12 -52 21 0 22 -1 24 -70 1 -33 5 -45
16 -45 12 0 16 17 18 83 4 108 -4 121 -46 84z"/>
<path d="M6470 4778 c-23 -37 -26 -94 -8 -135 7 -15 12 -29 13 -29 0 -1 10 -5
22 -8 15 -5 28 -1 42 13 17 17 21 34 21 90 0 62 -2 70 -25 85 -34 23 -43 20
-65 -16z m60 -71 c0 -58 -4 -68 -26 -60 -9 3 -14 21 -14 52 0 50 5 61 27 61 9
0 13 -16 13 -53z"/>
<path d="M4619 4795 c-7 -6 -1 -176 6 -183 16 -16 26 24 23 98 -3 74 -12 102
-29 85z"/>
<path d="M6590 4765 c0 -20 5 -46 12 -58 6 -12 14 -38 18 -57 4 -29 10 -35 30
-35 19 0 26 7 30 30 4 17 11 39 17 50 6 11 14 40 18 63 6 39 5 43 -11 40 -12
-2 -20 -13 -22 -28 -7 -62 -12 -71 -31 -60 -10 5 -23 26 -28 47 -12 50 -33 56
-33 8z"/>
<path d="M4153 4750 c-21 -8 -23 -16 -23 -76 0 -48 3 -65 13 -62 6 3 13 24 15
49 1 24 5 51 8 59 9 26 34 -19 34 -61 0 -40 13 -58 26 -37 10 15 6 83 -7 115
-9 24 -29 28 -66 13z"/>
<path d="M4275 4725 c-41 -42 -43 -56 -11 -88 32 -32 51 -38 80 -27 46 17 50
86 9 132 -23 26 -38 22 -78 -17z m69 -29 c12 -48 -17 -74 -44 -41 -11 13 -11
20 0 40 17 32 36 32 44 1z"/>
<path d="M4841 4742 c-29 -23 -25 -53 12 -70 35 -17 35 -30 0 -34 -33 -4 -32
-20 1 -29 26 -7 86 14 86 31 0 21 -44 70 -64 70 -10 0 -16 3 -12 7 4 4 15 8
24 8 24 0 21 29 -3 32 -11 2 -31 -5 -44 -15z"/>
<path d="M5432 4747 c-18 -8 -22 -18 -22 -59 0 -26 -4 -48 -10 -48 -5 0 -10
18 -10 40 0 34 -4 41 -25 46 -14 4 -28 4 -31 1 -4 -3 -3 -29 1 -57 l7 -52 34
5 c18 3 36 1 39 -4 14 -21 25 -6 25 32 0 45 16 83 31 74 5 -4 9 -31 9 -61 0
-41 4 -54 15 -54 11 0 15 11 15 39 0 22 3 47 6 55 11 28 34 -2 34 -45 l0 -38
50 1 c48 1 50 3 50 29 0 38 18 82 30 74 5 -3 10 -31 10 -61 0 -41 4 -54 15
-54 11 0 15 11 15 43 0 52 15 80 30 57 5 -8 10 -32 10 -52 0 -31 4 -38 20 -38
11 0 20 5 20 10 0 16 28 11 38 -7 11 -18 68 -21 85 -4 11 11 1 17 -38 23 -28
4 -16 23 15 23 35 1 41 48 8 75 -31 26 -44 25 -64 -5 -20 -31 -39 -32 -58 -2
-14 20 -23 22 -81 21 -36 -1 -71 -6 -78 -13 -6 -6 -11 -30 -10 -54 1 -41 1
-41 -10 -12 -5 17 -13 32 -17 35 -4 3 -11 14 -17 24 -8 15 -23 19 -65 21 -30
1 -64 -3 -76 -8z"/>
<path d="M5973 4753 c-9 -3 -13 -27 -13 -74 0 -55 3 -69 15 -69 11 0 15 12 15
44 0 26 6 48 15 56 29 24 5 55 -32 43z"/>
<path d="M3772 4683 l3 -68 55 0 55 0 0 60 c0 47 -3 60 -15 60 -10 0 -16 -12
-18 -35 -4 -39 -17 -60 -38 -60 -10 0 -14 15 -14 55 0 43 -3 55 -15 55 -13 0
-15 -12 -13 -67z"/>
<path d="M4767 4743 c-4 -3 -7 -28 -7 -55 0 -42 -3 -49 -17 -46 -14 2 -19 15
-21 51 -4 64 -26 57 -30 -9 -4 -64 11 -83 61 -77 l37 5 0 69 c0 64 -6 80 -23
62z"/>
<path d="M4066 4724 c-12 -31 -6 -102 8 -107 21 -8 26 2 26 49 0 46 -8 74 -20
74 -4 0 -11 -7 -14 -16z"/>
</g>
</svg>
