<?xml version="1.0" standalone="no"?>
<!DOCTYPE svg PUBLIC "-//W3C//DTD SVG 20010904//EN"
 "http://www.w3.org/TR/2001/REC-SVG-20010904/DTD/svg10.dtd">
<svg version="1.0" xmlns="http://www.w3.org/2000/svg"
 width="300.000000pt" height="300.000000pt" viewBox="0 0 300.000000 300.000000"
 preserveAspectRatio="xMidYMid meet">
<metadata>
Created by potrace 1.10, written by Peter Selinger 2001-2011
</metadata>
<g transform="translate(0.000000,300.000000) scale(0.100000,-0.100000)"
fill="#000000" stroke="none">
<path d="M510 2955 c0 -25 5 -45 10 -45 6 0 10 20 10 45 0 25 -4 45 -10 45 -5
0 -10 -20 -10 -45z"/>
<path d="M683 2955 c0 -27 2 -38 4 -22 2 15 2 37 0 50 -2 12 -4 0 -4 -28z"/>
<path d="M840 2955 c0 -25 5 -45 10 -45 6 0 10 20 10 45 0 25 -4 45 -10 45 -5
0 -10 -20 -10 -45z"/>
<path d="M1032 2878 c-2 -119 -3 -128 -21 -128 -24 0 -71 -54 -71 -81 0 -34
28 -76 60 -89 l30 -12 0 -124 0 -124 -85 0 -85 0 0 173 c0 166 -1 177 -29 258
-42 121 -51 142 -56 137 -3 -2 11 -51 30 -108 35 -103 35 -105 35 -282 l0
-178 -75 0 -75 0 0 180 0 180 -36 105 c-20 58 -41 105 -46 105 -6 0 -7 -8 -3
-17 73 -185 75 -196 75 -379 l0 -174 -75 0 -75 0 0 174 0 175 -37 103 c-34 97
-53 137 -53 111 0 -6 16 -54 35 -107 l35 -97 0 -179 0 -180 -44 0 -43 0 -7
-61 c-3 -34 -6 -91 -6 -125 l0 -64 -72 0 -73 0 0 50 c0 41 3 50 18 50 9 0 17
5 17 10 0 6 -8 10 -19 10 -14 0 -17 6 -13 25 2 15 0 25 -7 25 -6 0 -11 -11
-11 -25 0 -23 -3 -25 -50 -25 -27 0 -50 -4 -50 -10 0 -5 23 -10 50 -10 l50 0
0 -391 0 -392 87 -86 c93 -92 167 -141 277 -185 67 -27 68 -27 299 -24 l232 3
79 38 c106 50 191 112 265 193 l61 67 0 397 c0 387 -1 398 -21 424 -11 14 -29
26 -40 26 -16 0 -19 7 -19 40 l0 40 -50 0 -50 0 0 340 c0 220 -4 340 -10 340
-6 0 -10 -120 -10 -340 l0 -340 -75 0 -75 0 -3 343 -2 342 -3 -342 -2 -343
-75 0 -75 0 0 124 0 124 30 12 c38 16 64 62 55 99 -8 33 -43 71 -66 71 -17 0
-19 13 -22 128 l-3 127 -2 -127z m38 -148 c13 -8 11 -13 -11 -35 l-25 -26 -24
26 c-21 22 -22 28 -10 35 19 12 51 12 70 0z m-70 -95 c-27 -29 -40 -20 -40 31
0 43 10 48 39 20 l25 -25 -24 -26z m110 32 c0 -51 -13 -61 -40 -32 l-23 25 23
25 c28 30 40 24 40 -18z m-33 -74 c-10 -9 -74 -9 -83 0 -4 4 3 18 16 32 l24
26 25 -25 c14 -14 22 -29 18 -33z m377 -347 c3 -32 6 -88 6 -122 l0 -64 -515
0 -515 0 0 94 c0 51 3 106 6 122 l6 29 503 0 503 1 6 -60z m58 -50 c4 -6 8
-187 8 -403 l0 -392 -32 -38 c-81 -94 -128 -131 -257 -201 l-66 -37 -244 -3
c-233 -3 -247 -2 -305 19 -85 32 -200 110 -274 188 l-62 66 0 105 c-2 301 1
534 5 538 7 8 98 9 653 11 l532 1 0 85 c0 76 2 84 18 78 9 -4 20 -11 24 -17z"/>
<path d="M515 2279 c-16 -6 -14 -8 12 -8 23 -1 37 -8 49 -26 21 -32 10 -63
-29 -80 -27 -12 -29 -14 -9 -15 30 0 62 34 62 68 0 44 -46 77 -85 61z"/>
<path d="M675 2279 c-11 -5 -28 -23 -37 -40 -17 -30 -17 -31 9 -57 15 -15 20
-18 12 -8 -13 17 -12 18 9 12 14 -5 22 -3 22 4 0 7 8 9 19 5 11 -3 22 -1 26 5
4 6 -12 10 -44 10 -28 0 -51 5 -51 10 0 6 24 10 53 10 30 0 47 4 39 8 -7 5
-28 8 -47 7 -26 0 -32 2 -23 12 13 16 60 17 76 1 14 -14 16 -57 3 -76 -4 -7
-21 -17 -37 -22 -25 -7 -26 -8 -6 -9 26 -1 72 40 72 64 0 17 -52 75 -67 74 -4
0 -17 -5 -28 -10z"/>
<path d="M849 2279 c-10 -6 -7 -9 13 -9 34 0 63 -39 53 -70 -4 -12 -21 -28
-38 -35 -24 -11 -27 -14 -12 -15 36 0 65 28 65 64 0 46 -49 85 -81 65z"/>
<path d="M989 2261 c-15 -16 -31 -26 -34 -23 -3 3 -5 -3 -5 -13 0 -24 55 -75
80 -75 24 0 70 42 70 63 0 22 -37 64 -61 70 -15 4 -30 -2 -50 -22z m88 -20
c26 -53 -33 -103 -81 -68 -16 12 -14 13 19 14 62 2 68 23 7 23 -29 0 -52 5
-52 10 0 6 24 10 53 10 33 0 47 3 38 9 -7 5 -28 8 -47 7 -26 -1 -30 1 -22 12
18 21 71 11 85 -17z"/>
<path d="M1168 2276 c-12 -7 -22 -18 -20 -24 1 -7 -2 -12 -8 -12 -5 0 -10 -3
-10 -7 0 -5 22 -6 50 -5 27 2 47 8 44 13 -3 5 -11 9 -17 8 -7 -1 -22 -1 -35 0
-33 2 -17 21 18 21 30 0 60 -30 60 -61 0 -19 -27 -45 -55 -52 -18 -4 -17 -5 3
-6 31 -1 72 43 65 72 -13 50 -55 73 -95 53z"/>
<path d="M1340 2280 c-9 -6 -3 -10 20 -12 68 -6 72 -88 6 -107 -23 -7 -25 -9
-10 -10 30 -1 74 36 74 62 -1 42 -59 86 -90 67z"/>
<path d="M815 2260 c-3 -5 -3 -10 2 -10 4 0 0 -5 -9 -11 -23 -13 -23 -33 -1
-50 15 -12 16 -12 8 1 -7 13 -6 13 7 2 10 -8 19 -9 22 -3 3 5 15 7 25 4 10 -3
22 0 25 6 5 7 -10 11 -44 11 -32 0 -49 4 -45 10 3 6 26 10 51 10 28 0 43 4 39
10 -4 6 -12 10 -18 9 -31 -4 -58 2 -52 11 3 6 4 10 1 10 -3 0 -8 -4 -11 -10z"/>
<path d="M473 2244 c-27 -28 -5 -61 37 -56 14 1 33 3 43 3 9 0 17 4 17 10 0 5
-22 9 -50 9 -27 0 -50 5 -50 10 0 6 23 10 51 10 29 0 48 4 44 10 -3 5 -21 8
-40 6 -19 -1 -36 1 -37 5 -2 4 -9 1 -15 -7z"/>
<path d="M1301 2247 c-16 -16 -14 -42 7 -64 9 -10 13 -12 7 -5 -8 12 -6 14 13
8 14 -5 22 -3 22 4 0 7 8 9 19 5 11 -3 22 -1 26 5 4 6 -12 10 -44 10 -28 0
-51 5 -51 10 0 6 23 10 51 10 33 0 48 4 44 11 -4 6 -13 8 -21 5 -8 -3 -25 -1
-38 4 -15 5 -27 5 -35 -3z"/>
<path d="M1113 2223 c0 -12 4 -20 8 -17 4 2 9 -2 12 -9 6 -15 54 -21 62 -7 3
5 12 7 20 3 8 -3 15 0 15 6 0 7 -20 11 -50 11 -36 0 -52 5 -59 18 -9 15 -10
15 -8 -5z"/>
<path d="M420 2429 c0 -31 4 -48 10 -44 6 3 10 26 10 51 0 24 -4 44 -10 44 -5
0 -10 -23 -10 -51z"/>
<path d="M455 2470 c-3 -5 -1 -10 4 -10 6 0 11 -15 11 -34 0 -19 5 -38 10 -41
6 -4 10 13 10 44 0 38 -4 51 -14 51 -8 0 -18 -4 -21 -10z"/>
<path d="M580 2436 c0 -25 5 -48 10 -51 6 -4 10 13 10 44 0 28 -4 51 -10 51
-5 0 -10 -20 -10 -44z"/>
<path d="M615 2469 c-4 -6 -4 -13 0 -17 3 -3 10 0 14 7 6 9 11 10 15 2 4 -6
-2 -25 -14 -41 -12 -17 -20 -30 -18 -31 32 -7 48 -7 53 1 3 6 -1 10 -9 10 -18
0 -21 16 -6 25 6 3 10 17 10 31 0 17 -5 24 -19 24 -11 0 -23 -5 -26 -11z"/>
<path d="M750 2436 c0 -25 5 -48 10 -51 6 -4 10 13 10 44 0 28 -4 51 -10 51
-5 0 -10 -20 -10 -44z"/>
<path d="M785 2470 c-4 -6 -4 -14 0 -18 4 -4 10 -1 12 6 3 6 9 9 14 6 6 -4 6
-11 -1 -19 -8 -9 -8 -15 0 -20 19 -12 10 -26 -12 -20 -22 7 -22 6 -6 -10 24
-25 38 -10 35 38 -1 30 -7 43 -19 45 -9 2 -19 -2 -23 -8z"/>
<path d="M957 2474 c-12 -12 -8 -71 6 -81 6 -6 20 -13 30 -16 16 -6 18 -1 15
46 -3 44 -6 52 -23 55 -12 2 -24 0 -28 -4z m39 -30 c7 -27 -7 -50 -25 -40 -12
8 -15 49 -4 59 13 13 23 7 29 -19z"/>
<path d="M1100 2435 c0 -49 15 -64 48 -49 15 7 14 8 -5 11 -19 4 -23 11 -23
44 0 21 -4 39 -10 39 -5 0 -10 -20 -10 -45z"/>
<path d="M1270 2429 c0 -27 4 -48 9 -45 4 3 7 18 4 33 -3 25 -2 26 9 10 38
-55 37 -55 36 3 -1 49 -1 51 -8 20 l-7 -35 -14 33 c-19 46 -29 40 -29 -19z"/>
<path d="M260 2283 c0 -14 20 -39 20 -25 0 8 18 12 54 12 44 0 55 -4 59 -17 3
-11 5 -7 6 10 1 27 1 27 -69 27 -38 0 -70 -3 -70 -7z"/>
<path d="M300 2234 c0 -8 5 -12 10 -9 6 4 8 11 5 16 -9 14 -15 11 -15 -7z"/>
<path d="M20 2220 c0 -5 5 -10 10 -10 6 0 10 -18 10 -40 0 -22 5 -40 10 -40 6
0 10 18 10 40 0 22 5 40 10 40 6 0 10 5 10 10 0 6 -13 10 -30 10 -16 0 -30 -4
-30 -10z"/>
<path d="M89 2214 c-11 -13 -8 -19 16 -38 18 -14 24 -25 17 -30 -6 -3 -13 -2
-17 4 -3 5 -11 10 -17 10 -7 0 -6 -6 2 -15 16 -20 39 -19 47 2 4 10 -2 23 -15
34 -27 22 -28 32 -2 24 24 -7 27 10 4 19 -21 8 -20 8 -35 -10z"/>
<path d="M300 2120 c0 -5 5 -10 10 -10 6 0 10 5 10 10 0 6 -4 10 -10 10 -5 0
-10 -4 -10 -10z"/>
<path d="M1902 1361 c-60 -59 -114 -140 -145 -219 -14 -34 -17 -76 -17 -207 0
-162 1 -167 29 -230 17 -36 40 -80 52 -97 13 -18 18 -33 12 -35 -21 -7 -48
-32 -41 -38 4 -4 18 2 32 13 l25 19 59 -58 59 -59 306 0 c293 0 307 1 317 19
15 30 14 923 -2 939 -9 9 -94 12 -319 12 l-307 0 -60 -59z m656 30 c10 -1 12
-95 12 -456 l-1 -455 -260 0 c-164 0 -258 4 -254 10 3 5 -3 18 -15 30 -25 25
-26 47 -2 54 11 3 8 5 -8 4 -63 -1 -75 3 -86 26 -9 18 -8 26 5 35 14 11 14 11
-2 7 -21 -7 -46 13 -39 32 2 6 -3 12 -12 12 -9 0 -16 4 -16 10 0 5 42 11 93
12 84 3 92 5 92 23 0 18 -8 20 -101 25 -95 5 -102 7 -125 33 l-24 29 -26 -21
-27 -21 2 163 c2 176 10 207 74 302 35 52 112 135 134 144 13 4 511 6 586 2z
m-692 -686 c34 -69 39 -85 26 -90 -8 -3 -16 -4 -16 -3 -1 2 -11 17 -21 33 -30
47 -65 119 -65 133 0 6 8 12 18 11 11 0 31 -28 58 -84z m194 29 c0 -13 -14
-15 -97 -12 -66 2 -98 7 -101 16 -3 9 21 12 97 12 85 0 101 -2 101 -16z m-82
-184 c45 -44 58 -62 47 -66 -15 -6 -70 33 -115 81 -23 24 -21 35 5 45 1 0 29
-27 63 -60z"/>
<path d="M2008 593 c7 -3 16 -2 19 1 4 3 -2 6 -13 5 -11 0 -14 -3 -6 -6z"/>
<path d="M2061 584 c0 -11 3 -14 6 -6 3 7 2 16 -1 19 -3 4 -6 -2 -5 -13z"/>
<path d="M1753 514 c-4 -10 0 -20 10 -26 10 -5 17 -14 17 -20 0 -7 -5 -6 -15
2 -11 9 -15 9 -15 1 0 -17 30 -25 43 -12 9 9 6 17 -13 32 l-25 20 25 -7 c22
-6 23 -5 11 10 -17 20 -30 20 -38 0z"/>
</g>
</svg>
